<svg width="303" height="185" viewBox="0 0 303 185" fill="none" xmlns="http://www.w3.org/2000/svg">
<g filter="url(#filter0_d_2_57011)">
<rect x="4" y="4" width="290.262" height="171.704" rx="12" fill="white"/>
<mask id="path-2-inside-1_2_57011" fill="white">
<path d="M4 4H294.262V50.5724H4V4Z"/>
</mask>
<path d="M294.262 49.8045H4V51.3403H294.262V49.8045Z" fill="#F0F0F0" mask="url(#path-2-inside-1_2_57011)"/>
<path fill-rule="evenodd" clip-rule="evenodd" d="M35.0422 21.3595C35.0426 21.3595 35.0429 21.3598 35.0436 21.3605L36.0324 22.3495C36.0331 22.35 36.0333 22.3503 36.0335 22.3509C36.0335 22.3512 36.0335 22.3516 36.0335 22.3519C36.0335 22.3524 36.0331 22.3527 36.0324 22.3534L31.1011 27.2847L36.0324 32.216C36.0331 32.2167 36.0333 32.217 36.0335 32.2175C36.0336 32.2179 36.0336 32.2184 36.0335 32.2187C36.0335 32.2191 36.0331 32.2194 36.0324 32.2201L35.0434 33.2089C35.0429 33.2096 35.0426 33.2098 35.0422 33.21C35.0418 33.2101 35.0414 33.2101 35.041 33.21C35.0405 33.21 35.0402 33.2096 35.0395 33.2089L30.1082 28.2777L25.1769 33.2089C25.1762 33.2096 25.1759 33.2098 25.1754 33.21C25.175 33.2101 25.1746 33.2101 25.1742 33.21C25.1738 33.21 25.1735 33.2096 25.1728 33.2089L24.184 32.2199C24.1833 32.2194 24.1831 32.2191 24.183 32.2187C24.1828 32.2184 24.1828 32.2179 24.183 32.2175C24.183 32.217 24.1833 32.2167 24.184 32.216L29.1153 27.2847L24.184 22.3534C24.1833 22.3527 24.1831 22.3524 24.183 22.3519C24.1828 22.3515 24.1828 22.3511 24.183 22.3507C24.183 22.3503 24.1833 22.35 24.184 22.3493L25.173 21.3605C25.1735 21.3598 25.1738 21.3596 25.1742 21.3595C25.1746 21.3593 25.175 21.3593 25.1754 21.3595C25.1759 21.3595 25.1762 21.3598 25.1769 21.3605L30.1082 26.2918L35.0395 21.3605C35.0402 21.3598 35.0405 21.3596 35.041 21.3595C35.0414 21.3593 35.0418 21.3593 35.0422 21.3595Z" fill="black" fill-opacity="0.45"/>
<path d="M53.9157 28.3921C53.2508 28.3921 52.6577 28.2294 52.1363 27.9039C51.6148 27.5785 51.2054 27.1165 50.9079 26.5181C50.6105 25.9162 50.4617 25.2041 50.4617 24.3817C50.4617 23.5558 50.6105 22.8419 50.9079 22.24C51.2054 21.6381 51.6148 21.1744 52.1363 20.8489C52.6577 20.5235 53.2508 20.3608 53.9157 20.3608C54.3077 20.3608 54.6769 20.4185 55.0233 20.534C55.3733 20.6495 55.6882 20.8174 55.9682 21.0379C56.2482 21.2549 56.4809 21.5226 56.6663 21.841C56.8553 22.156 56.9848 22.5129 57.0548 22.9119H56.1099C56.0539 22.6389 55.956 22.3992 55.816 22.1927C55.6795 21.9863 55.5115 21.813 55.312 21.6731C55.1161 21.5296 54.8991 21.4229 54.6611 21.3529C54.4232 21.2794 54.1747 21.2426 53.9157 21.2426C53.4433 21.2426 53.0146 21.3634 52.6297 21.6048C52.2447 21.8428 51.9385 22.1962 51.7111 22.6652C51.4871 23.1306 51.3751 23.7028 51.3751 24.3817C51.3751 25.0571 51.4871 25.6275 51.7111 26.0929C51.9385 26.5584 52.2447 26.9118 52.6297 27.1533C53.0146 27.3912 53.4433 27.5102 53.9157 27.5102C54.1747 27.5102 54.4232 27.4752 54.6611 27.4052C54.8991 27.3317 55.1161 27.225 55.312 27.085C55.5115 26.9416 55.6795 26.7666 55.816 26.5601C55.956 26.3536 56.0539 26.1139 56.1099 25.841H57.0548C56.9848 26.2434 56.8553 26.6021 56.6663 26.9171C56.4809 27.232 56.2482 27.4997 55.9682 27.7202C55.6882 27.9372 55.3733 28.1034 55.0233 28.2189C54.6769 28.3344 54.3077 28.3921 53.9157 28.3921ZM58.8605 24.7596V28.2871H57.9682V20.4657H58.8605V23.3423H58.9445C59.081 23.0379 59.2857 22.7964 59.5587 22.6179C59.8351 22.436 60.2043 22.345 60.6663 22.345C61.0652 22.345 61.4152 22.4255 61.7161 22.5864C62.0171 22.7439 62.2515 22.9871 62.4195 23.3161C62.5875 23.6415 62.6715 24.0562 62.6715 24.5601V28.2871H61.7686V24.6231C61.7686 24.1542 61.6479 23.792 61.4064 23.5365C61.1649 23.2811 60.8307 23.1534 60.4038 23.1534C60.1063 23.1534 59.8421 23.2163 59.6112 23.3423C59.3802 23.4683 59.1965 23.6503 59.06 23.8882C58.927 24.1262 58.8605 24.4167 58.8605 24.7596ZM63.8263 28.2871V22.4185H64.7187V28.2871H63.8263ZM64.2777 21.4421C64.1028 21.4421 63.9523 21.3826 63.8263 21.2636C63.7003 21.1446 63.6373 21.0012 63.6373 20.8332C63.6373 20.6652 63.7003 20.5217 63.8263 20.4028C63.9523 20.2838 64.1028 20.2243 64.2777 20.2243C64.4527 20.2243 64.6032 20.2838 64.7292 20.4028C64.8552 20.5217 64.9182 20.6652 64.9182 20.8332C64.9182 21.0012 64.8552 21.1446 64.7292 21.2636C64.6032 21.3826 64.4527 21.4421 64.2777 21.4421ZM70.9338 22.4185V23.1848H67.8997V22.4185H70.9338ZM68.7816 21.0222H69.674V26.6074C69.674 26.9118 69.737 27.1358 69.8629 27.2793C69.9889 27.4192 70.1884 27.4892 70.4613 27.4892C70.5208 27.4892 70.5821 27.4857 70.6451 27.4787C70.7116 27.4717 70.7833 27.4612 70.8603 27.4472L71.0493 28.2556C70.9653 28.2871 70.862 28.3116 70.7396 28.3291C70.6206 28.3501 70.4998 28.3606 70.3774 28.3606C69.9049 28.3606 69.52 28.2206 69.2225 27.9407C68.9286 27.6607 68.7816 27.2968 68.7816 26.8488V21.0222ZM71.7947 28.2871V22.4185H72.687V28.2871H71.7947ZM72.2461 21.4421C72.0711 21.4421 71.9206 21.3826 71.7947 21.2636C71.6687 21.1446 71.6057 21.0012 71.6057 20.8332C71.6057 20.6652 71.6687 20.5217 71.7947 20.4028C71.9206 20.2838 72.0711 20.2243 72.2461 20.2243C72.4211 20.2243 72.5715 20.2838 72.6975 20.4028C72.8235 20.5217 72.8865 20.6652 72.8865 20.8332C72.8865 21.0012 72.8235 21.1446 72.6975 21.2636C72.5715 21.3826 72.4211 21.4421 72.2461 21.4421ZM76.2985 28.4131C75.7351 28.4131 75.2469 28.2871 74.834 28.0351C74.4245 27.7832 74.1096 27.4315 73.8891 26.98C73.6686 26.5251 73.5584 25.9984 73.5584 25.4C73.5584 24.7981 73.6669 24.2679 73.8839 23.8095C74.1008 23.3511 74.4053 22.9924 74.7972 22.7334C75.1927 22.4745 75.6546 22.345 76.183 22.345C76.4875 22.345 76.7902 22.3957 77.0911 22.4972C77.3921 22.5987 77.6651 22.7632 77.91 22.9906C78.1585 23.2181 78.3562 23.5191 78.5032 23.8935C78.6502 24.2679 78.7237 24.7281 78.7237 25.274V25.6625H74.1988V24.8856H78.2355L77.8208 25.1796C77.8208 24.7876 77.7595 24.4394 77.6371 24.135C77.5146 23.8305 77.3309 23.5908 77.0859 23.4158C76.8444 23.2408 76.5435 23.1534 76.183 23.1534C75.8226 23.1534 75.5129 23.2426 75.2539 23.4211C74.9984 23.596 74.8025 23.8253 74.666 24.1087C74.5295 24.3922 74.4613 24.6966 74.4613 25.0221V25.5365C74.4613 25.9809 74.5383 26.3571 74.6922 26.6651C74.8462 26.973 75.0614 27.2075 75.3379 27.3685C75.6144 27.526 75.9346 27.6047 76.2985 27.6047C76.533 27.6047 76.7464 27.5715 76.9389 27.505C77.1314 27.435 77.2976 27.3317 77.4376 27.1953C77.5776 27.0553 77.6843 26.8838 77.7578 26.6808L78.6292 26.9328C78.5382 27.2268 78.3842 27.4857 78.1672 27.7097C77.9538 27.9302 77.6878 28.1034 77.3693 28.2294C77.0509 28.3518 76.6939 28.4131 76.2985 28.4131ZM74.1883 21.6836L75.7421 20.2978H76.582L78.1462 21.6836H77.0439L76.1725 20.8752L75.3011 21.6836H74.1883ZM77.7263 20.7492L78.4822 19.3739H79.595L78.5242 20.7492H77.7263ZM82.1147 22.4185V23.1848H79.0806V22.4185H82.1147ZM79.9625 21.0222H80.8548V26.6074C80.8548 26.9118 80.9178 27.1358 81.0438 27.2793C81.1698 27.4192 81.3693 27.4892 81.6422 27.4892C81.7017 27.4892 81.763 27.4857 81.826 27.4787C81.8924 27.4717 81.9642 27.4612 82.0412 27.4472L82.2301 28.2556C82.1462 28.2871 82.0429 28.3116 81.9204 28.3291C81.8015 28.3501 81.6807 28.3606 81.5582 28.3606C81.0858 28.3606 80.7009 28.2206 80.4034 27.9407C80.1094 27.6607 79.9625 27.2968 79.9625 26.8488V21.0222ZM87.8573 30.6073C87.2029 30.6073 86.685 30.4883 86.3036 30.2503C85.9256 30.0124 85.6456 29.7394 85.4637 29.4314L86.1776 28.9275C86.2581 29.036 86.3613 29.1585 86.4873 29.295C86.6133 29.4349 86.7847 29.5557 87.0017 29.6572C87.2187 29.7586 87.5039 29.8094 87.8573 29.8094C88.3298 29.8094 88.72 29.6957 89.0279 29.4682C89.3394 29.2407 89.4951 28.882 89.4951 28.3921V27.2058H89.4111C89.3481 27.3108 89.2554 27.442 89.1329 27.5995C89.0139 27.7534 88.8407 27.8917 88.6132 28.0141C88.3892 28.1331 88.0848 28.1926 87.6998 28.1926C87.2274 28.1926 86.804 28.0806 86.4295 27.8567C86.0551 27.6327 85.7576 27.3073 85.5372 26.8803C85.3202 26.4534 85.2117 25.9355 85.2117 25.3265C85.2117 24.7246 85.3167 24.2015 85.5267 23.757C85.7401 23.3091 86.0358 22.9626 86.4138 22.7177C86.7917 22.4692 87.2274 22.345 87.7208 22.345C88.1023 22.345 88.405 22.408 88.629 22.5339C88.8564 22.6599 89.0297 22.8034 89.1486 22.9644C89.2711 23.1219 89.3656 23.2513 89.4321 23.3528H89.5266V22.4185H90.3875V28.4551C90.3875 28.959 90.2737 29.3685 90.0463 29.6834C89.8223 30.0019 89.5178 30.2346 89.1329 30.3816C88.7514 30.532 88.3263 30.6073 87.8573 30.6073ZM87.8258 27.3842C88.3683 27.3842 88.7829 27.2005 89.0699 26.8331C89.3604 26.4656 89.5056 25.9564 89.5056 25.3055C89.5056 24.8821 89.4426 24.5094 89.3166 24.1875C89.1906 23.8655 89.0017 23.6135 88.7497 23.4316C88.5012 23.2461 88.1933 23.1534 87.8258 23.1534C87.4444 23.1534 87.1259 23.2513 86.8705 23.4473C86.6185 23.6398 86.4295 23.8987 86.3036 24.2242C86.1776 24.5497 86.1146 24.9101 86.1146 25.3055C86.1146 25.7115 86.1776 26.0719 86.3036 26.3869C86.433 26.6983 86.6255 26.9433 86.881 27.1218C87.1364 27.2968 87.4514 27.3842 87.8258 27.3842ZM91.5423 28.2871V22.4185H92.4347V28.2871H91.5423ZM91.9937 21.4421C91.8188 21.4421 91.6683 21.3826 91.5423 21.2636C91.4163 21.1446 91.3533 21.0012 91.3533 20.8332C91.3533 20.6652 91.4163 20.5217 91.5423 20.4028C91.6683 20.2838 91.8188 20.2243 91.9937 20.2243C92.1687 20.2243 92.3192 20.2838 92.4452 20.4028C92.5711 20.5217 92.6341 20.6652 92.6341 20.8332C92.6341 21.0012 92.5711 21.1446 92.4452 21.2636C92.3192 21.3826 92.1687 21.4421 91.9937 21.4421ZM95.3112 28.4236C94.9403 28.4236 94.6026 28.3536 94.2981 28.2136C93.9937 28.0701 93.7522 27.8637 93.5737 27.5942C93.3953 27.3247 93.306 26.9993 93.306 26.6179C93.306 26.2819 93.3725 26.0107 93.5055 25.8042C93.6385 25.5942 93.8152 25.4298 94.0357 25.3108C94.2596 25.1883 94.5046 25.0973 94.7706 25.0378C95.04 24.9783 95.3112 24.9311 95.5842 24.8961C95.9412 24.8506 96.2299 24.8156 96.4503 24.7911C96.6743 24.7666 96.837 24.7246 96.9385 24.6651C97.0435 24.6056 97.096 24.5042 97.096 24.3607V24.3292C97.096 23.9547 96.9928 23.6643 96.7863 23.4578C96.5833 23.2478 96.2736 23.1429 95.8572 23.1429C95.4302 23.1429 95.0943 23.2373 94.8493 23.4263C94.6043 23.6118 94.4329 23.8113 94.3349 24.0247L93.474 23.7203C93.628 23.3633 93.8327 23.0851 94.0882 22.8856C94.3471 22.6862 94.6271 22.5462 94.928 22.4657C95.2325 22.3852 95.5317 22.345 95.8257 22.345C96.0146 22.345 96.2316 22.3677 96.4766 22.4132C96.7215 22.4552 96.9595 22.5462 97.1905 22.6862C97.4249 22.8227 97.6174 23.0309 97.7679 23.3108C97.9219 23.5873 97.9989 23.9582 97.9989 24.4237V28.2871H97.096V27.4892H97.054C96.9945 27.6152 96.893 27.7517 96.7495 27.8987C96.6061 28.0421 96.4153 28.1664 96.1774 28.2714C95.9429 28.3728 95.6542 28.4236 95.3112 28.4236ZM95.4477 27.6152C95.8047 27.6152 96.1056 27.5452 96.3506 27.4052C96.5956 27.2653 96.781 27.085 96.907 26.8646C97.033 26.6406 97.096 26.4079 97.096 26.1664V25.337C97.0575 25.3825 96.9735 25.4245 96.844 25.463C96.718 25.498 96.5711 25.5295 96.4031 25.5575C96.2386 25.5855 96.0776 25.61 95.9202 25.631C95.7627 25.6485 95.6367 25.6625 95.5422 25.673C95.3077 25.7045 95.089 25.7552 94.8861 25.8252C94.6831 25.8917 94.5186 25.9914 94.3926 26.1244C94.2701 26.2574 94.2089 26.4394 94.2089 26.6703C94.2089 26.9818 94.3244 27.218 94.5554 27.379C94.7898 27.5365 95.0873 27.6152 95.4477 27.6152ZM101.526 28.4131C100.998 28.4131 100.534 28.2871 100.135 28.0351C99.7364 27.7832 99.4249 27.4297 99.2009 26.9748C98.9805 26.5199 98.8702 25.9914 98.8702 25.3895C98.8702 24.7771 98.9805 24.2434 99.2009 23.7885C99.4249 23.3301 99.7364 22.9749 100.135 22.7229C100.534 22.471 100.998 22.345 101.526 22.345C102.058 22.345 102.524 22.471 102.923 22.7229C103.322 22.9749 103.633 23.3301 103.857 23.7885C104.081 24.2434 104.193 24.7771 104.193 25.3895C104.193 25.9914 104.081 26.5199 103.857 26.9748C103.633 27.4297 103.322 27.7832 102.923 28.0351C102.524 28.2871 102.058 28.4131 101.526 28.4131ZM101.526 27.6047C101.932 27.6047 102.265 27.5015 102.524 27.295C102.783 27.0885 102.975 26.8173 103.101 26.4814C103.227 26.1419 103.29 25.778 103.29 25.3895C103.29 24.9941 103.227 24.6266 103.101 24.2872C102.975 23.9477 102.783 23.6748 102.524 23.4683C102.265 23.2583 101.932 23.1534 101.526 23.1534C101.127 23.1534 100.798 23.2583 100.539 23.4683C100.281 23.6748 100.088 23.9477 99.9621 24.2872C99.8361 24.6266 99.7731 24.9941 99.7731 25.3895C99.7731 25.778 99.8361 26.1419 99.9621 26.4814C100.088 26.8173 100.281 27.0885 100.539 27.295C100.798 27.5015 101.127 27.6047 101.526 27.6047ZM109.789 28.4131C109.299 28.4131 108.867 28.2889 108.492 28.0404C108.118 27.7919 107.825 27.4402 107.615 26.9853C107.405 26.5269 107.301 25.9879 107.301 25.3685C107.301 24.7526 107.405 24.2189 107.615 23.7675C107.829 23.3126 108.123 22.9626 108.497 22.7177C108.872 22.4692 109.306 22.345 109.799 22.345C110.184 22.345 110.487 22.408 110.707 22.5339C110.931 22.6599 111.103 22.8034 111.222 22.9644C111.341 23.1219 111.433 23.2513 111.5 23.3528H111.573V20.4657H112.466V28.2871H111.605V27.3842H111.5C111.433 27.4892 111.339 27.624 111.216 27.7884C111.094 27.9494 110.919 28.0946 110.692 28.2241C110.468 28.3501 110.167 28.4131 109.789 28.4131ZM109.904 27.6047C110.268 27.6047 110.574 27.5102 110.823 27.3212C111.071 27.1288 111.26 26.8646 111.39 26.5286C111.519 26.1892 111.584 25.799 111.584 25.358C111.584 24.9171 111.521 24.5322 111.395 24.2032C111.269 23.8707 111.08 23.6135 110.828 23.4316C110.58 23.2461 110.272 23.1534 109.904 23.1534C109.526 23.1534 109.211 23.2513 108.959 23.4473C108.707 23.6433 108.518 23.9075 108.392 24.2399C108.266 24.5724 108.203 24.9451 108.203 25.358C108.203 25.7745 108.266 26.1524 108.392 26.4919C108.522 26.8313 108.713 27.1025 108.965 27.3055C109.216 27.505 109.53 27.6047 109.904 27.6047ZM113.621 28.2871V22.4185H114.513V28.2871H113.621ZM114.072 21.4421C113.897 21.4421 113.747 21.3826 113.621 21.2636C113.495 21.1446 113.432 21.0012 113.432 20.8332C113.432 20.6652 113.495 20.5217 113.621 20.4028C113.747 20.2838 113.897 20.2243 114.072 20.2243C114.247 20.2243 114.397 20.2838 114.523 20.4028C114.649 20.5217 114.712 20.6652 114.712 20.8332C114.712 21.0012 114.649 21.1446 114.523 21.2636C114.397 21.3826 114.247 21.4421 114.072 21.4421ZM114.072 30.2188C113.897 30.2188 113.747 30.1593 113.621 30.0404C113.495 29.9214 113.432 29.7779 113.432 29.6099C113.432 29.4419 113.495 29.2985 113.621 29.1795C113.747 29.0605 113.897 29.001 114.072 29.001C114.247 29.001 114.397 29.0605 114.523 29.1795C114.649 29.2985 114.712 29.4419 114.712 29.6099C114.712 29.7779 114.649 29.9214 114.523 30.0404C114.397 30.1593 114.247 30.2188 114.072 30.2188ZM118.04 28.4131C117.495 28.4131 117.022 28.2836 116.623 28.0246C116.228 27.7622 115.922 27.4035 115.705 26.9486C115.491 26.4936 115.384 25.9739 115.384 25.3895C115.384 24.7911 115.495 24.2644 115.715 23.8095C115.936 23.3511 116.243 22.9924 116.639 22.7334C117.038 22.4745 117.502 22.345 118.03 22.345C118.443 22.345 118.814 22.422 119.143 22.5759C119.475 22.7264 119.746 22.9399 119.956 23.2163C120.17 23.4928 120.301 23.8148 120.35 24.1822H119.447C119.402 24.0037 119.32 23.8358 119.201 23.6783C119.082 23.5208 118.924 23.3948 118.728 23.3003C118.536 23.2023 118.306 23.1534 118.04 23.1534C117.691 23.1534 117.384 23.2443 117.122 23.4263C116.859 23.6083 116.655 23.8655 116.508 24.198C116.361 24.5269 116.287 24.9136 116.287 25.358C116.287 25.8095 116.359 26.2049 116.502 26.5444C116.646 26.8803 116.849 27.141 117.111 27.3265C117.377 27.512 117.687 27.6047 118.04 27.6047C118.394 27.6047 118.697 27.5137 118.949 27.3317C119.201 27.1463 119.367 26.8943 119.447 26.5759H120.35C120.301 26.9223 120.175 27.2338 119.972 27.5102C119.773 27.7867 119.508 28.0071 119.18 28.1716C118.854 28.3326 118.474 28.4131 118.04 28.4131ZM122.093 24.7596V28.2871H121.2V20.4657H122.093V23.3423H122.177C122.313 23.0379 122.518 22.7964 122.791 22.6179C123.067 22.436 123.437 22.345 123.899 22.345C124.298 22.345 124.647 22.4255 124.948 22.5864C125.249 22.7439 125.484 22.9871 125.652 23.3161C125.82 23.6415 125.904 24.0562 125.904 24.5601V28.2871H125.001V24.6231C125.001 24.1542 124.88 23.792 124.639 23.5365C124.397 23.2811 124.063 23.1534 123.636 23.1534C123.339 23.1534 123.074 23.2163 122.844 23.3423C122.613 23.4683 122.429 23.6503 122.292 23.8882C122.159 24.1262 122.093 24.4167 122.093 24.7596Z" fill="black" fill-opacity="0.88"/>
<g clip-path="url(#clip0_2_57011)">
<path d="M122.255 69.3859H176.007C177.491 69.3859 178.695 70.5892 178.695 72.0735V82.8239C178.695 84.3083 177.491 85.5116 176.007 85.5116H122.255C120.771 85.5116 119.567 84.3083 119.567 82.8239V72.0735C119.567 70.5892 120.771 69.3859 122.255 69.3859Z" fill="#F6FFED"/>
<path d="M122.255 69.3859H176.007C177.491 69.3859 178.695 70.5892 178.695 72.0735V82.8239C178.695 84.3083 177.491 85.5116 176.007 85.5116H122.255C120.771 85.5116 119.567 84.3083 119.567 82.8239V72.0735C119.567 70.5892 120.771 69.3859 122.255 69.3859Z" stroke="#B7EB8F" stroke-width="0.767889"/>
<path d="M125.866 80.7695V74.0655H126.879V76.9811H130.217V74.0655H131.23V80.7695H130.217V77.8495H126.879V80.7695H125.866ZM134.348 80.873C133.877 80.873 133.464 80.765 133.11 80.5491C132.759 80.3331 132.486 80.0301 132.291 79.6402C132.099 79.2503 132.004 78.7973 132.004 78.2814C132.004 77.7595 132.099 77.3035 132.291 76.9136C132.486 76.5206 132.759 76.2162 133.11 76.0002C133.464 75.7843 133.877 75.6763 134.348 75.6763C134.822 75.6763 135.234 75.7843 135.585 76.0002C135.936 76.2162 136.209 76.5206 136.404 76.9136C136.599 77.3035 136.696 77.7595 136.696 78.2814C136.696 78.7973 136.599 79.2503 136.404 79.6402C136.209 80.0301 135.936 80.3331 135.585 80.5491C135.234 80.765 134.822 80.873 134.348 80.873ZM134.348 80.0496C134.657 80.0496 134.912 79.9686 135.113 79.8067C135.314 79.6447 135.462 79.4302 135.558 79.1633C135.657 78.8933 135.706 78.5993 135.706 78.2814C135.706 77.9574 135.657 77.6605 135.558 77.3905C135.462 77.1206 135.314 76.9046 135.113 76.7426C134.912 76.5806 134.657 76.4997 134.348 76.4997C134.042 76.4997 133.788 76.5806 133.587 76.7426C133.389 76.9046 133.241 77.1206 133.142 77.3905C133.043 77.6605 132.993 77.9574 132.993 78.2814C132.993 78.5993 133.043 78.8933 133.142 79.1633C133.241 79.4302 133.389 79.6447 133.587 79.8067C133.788 79.9686 134.042 80.0496 134.348 80.0496ZM138.861 80.8775C138.543 80.8775 138.255 80.819 137.997 80.702C137.739 80.5821 137.535 80.4081 137.385 80.1801C137.235 79.9521 137.16 79.6747 137.16 79.3477C137.16 79.0628 137.214 78.8303 137.322 78.6503C137.433 78.4674 137.581 78.3219 137.767 78.2139C137.953 78.1059 138.16 78.0249 138.388 77.9709C138.616 77.9169 138.85 77.875 139.09 77.845C139.393 77.812 139.637 77.7835 139.823 77.7595C140.009 77.7355 140.144 77.698 140.228 77.647C140.315 77.593 140.359 77.5075 140.359 77.3905V77.368C140.359 77.0831 140.278 76.8626 140.116 76.7066C139.957 76.5506 139.72 76.4727 139.405 76.4727C139.078 76.4727 138.819 76.5446 138.627 76.6886C138.438 76.8296 138.307 76.9901 138.235 77.1701L137.313 76.9586C137.424 76.6526 137.584 76.4067 137.794 76.2207C138.007 76.0317 138.25 75.8937 138.523 75.8068C138.799 75.7198 139.087 75.6763 139.387 75.6763C139.588 75.6763 139.801 75.7003 140.026 75.7483C140.251 75.7933 140.462 75.8787 140.66 76.0047C140.861 76.1277 141.025 76.3047 141.151 76.5356C141.277 76.7666 141.34 77.0651 141.34 77.431V80.7695H140.381V80.0811H140.345C140.285 80.2041 140.191 80.3271 140.062 80.4501C139.936 80.5731 139.774 80.675 139.576 80.756C139.378 80.837 139.139 80.8775 138.861 80.8775ZM139.072 80.0946C139.345 80.0946 139.577 80.0421 139.769 79.9372C139.961 79.8292 140.108 79.6882 140.21 79.5142C140.312 79.3402 140.363 79.1558 140.363 78.9608V78.3084C140.327 78.3414 140.26 78.3729 140.161 78.4029C140.062 78.4329 139.949 78.4584 139.823 78.4794C139.697 78.5004 139.574 78.5199 139.454 78.5379C139.334 78.5529 139.234 78.5649 139.153 78.5738C138.964 78.6008 138.792 78.6428 138.636 78.6998C138.48 78.7538 138.354 78.8348 138.258 78.9428C138.165 79.0478 138.118 79.1873 138.118 79.3612C138.118 79.6042 138.208 79.7872 138.388 79.9102C138.568 80.0331 138.796 80.0946 139.072 80.0946ZM139.117 75.1094L138.226 73.8315H139.234L139.864 75.1094H139.117ZM143.252 77.7865V80.7695H142.28V75.7393H143.225V76.5671H143.292C143.406 76.2942 143.585 76.0782 143.828 75.9192C144.071 75.7573 144.383 75.6763 144.764 75.6763C145.106 75.6763 145.404 75.7483 145.659 75.8922C145.917 76.0332 146.116 76.2447 146.257 76.5266C146.401 76.8086 146.473 77.1581 146.473 77.575V80.7695H145.502V77.692C145.502 77.329 145.406 77.0441 145.214 76.8371C145.022 76.6271 144.761 76.5221 144.431 76.5221C144.206 76.5221 144.003 76.5731 143.823 76.6751C143.646 76.7741 143.507 76.9166 143.405 77.1026C143.303 77.2885 143.252 77.5165 143.252 77.7865ZM151.801 75.7393V76.5266H149.056V75.7393H151.801ZM149.789 74.5424H150.766V79.2937C150.766 79.5247 150.814 79.6942 150.91 79.8022C151.006 79.9072 151.16 79.9596 151.373 79.9596C151.424 79.9596 151.478 79.9566 151.535 79.9506C151.595 79.9447 151.655 79.9357 151.715 79.9237L151.9 80.7335C151.801 80.7665 151.693 80.792 151.576 80.81C151.459 80.828 151.342 80.837 151.225 80.837C150.79 80.837 150.442 80.7155 150.181 80.4726C149.92 80.2266 149.789 79.8997 149.789 79.4917V74.5424ZM153.582 77.7865V80.7695H152.611V74.0655H153.569V76.5671H153.636C153.753 76.2942 153.932 76.0782 154.172 75.9192C154.415 75.7573 154.731 75.6763 155.121 75.6763C155.466 75.6763 155.768 75.7468 156.026 75.8877C156.283 76.0287 156.484 76.2402 156.628 76.5221C156.775 76.8041 156.849 77.1551 156.849 77.575V80.7695H155.868V77.692C155.868 77.32 155.772 77.0321 155.58 76.8281C155.391 76.6241 155.127 76.5221 154.788 76.5221C154.554 76.5221 154.347 76.5731 154.167 76.6751C153.987 76.7741 153.845 76.9166 153.74 77.1026C153.635 77.2885 153.582 77.5165 153.582 77.7865ZM159.243 80.8775C158.925 80.8775 158.637 80.819 158.379 80.702C158.121 80.5821 157.917 80.4081 157.767 80.1801C157.617 79.9521 157.542 79.6747 157.542 79.3477C157.542 79.0628 157.596 78.8303 157.704 78.6503C157.815 78.4674 157.963 78.3219 158.149 78.2139C158.335 78.1059 158.542 78.0249 158.77 77.9709C158.998 77.9169 159.232 77.875 159.472 77.845C159.775 77.812 160.019 77.7835 160.205 77.7595C160.391 77.7355 160.526 77.698 160.61 77.647C160.697 77.593 160.741 77.5075 160.741 77.3905V77.368C160.741 77.0831 160.66 76.8626 160.498 76.7066C160.339 76.5506 160.102 76.4727 159.787 76.4727C159.46 76.4727 159.201 76.5446 159.009 76.6886C158.82 76.8296 158.689 76.9901 158.617 77.1701L157.695 76.9586C157.806 76.6526 157.966 76.4067 158.176 76.2207C158.389 76.0317 158.632 75.8937 158.905 75.8068C159.181 75.7198 159.469 75.6763 159.769 75.6763C159.97 75.6763 160.183 75.7003 160.408 75.7483C160.633 75.7933 160.844 75.8787 161.042 76.0047C161.243 76.1277 161.407 76.3047 161.533 76.5356C161.659 76.7666 161.722 77.0651 161.722 77.431V80.7695H160.763V80.0811H160.727C160.667 80.2041 160.573 80.3271 160.444 80.4501C160.318 80.5731 160.156 80.675 159.958 80.756C159.76 80.837 159.522 80.8775 159.243 80.8775ZM159.454 80.0946C159.727 80.0946 159.959 80.0421 160.151 79.9372C160.343 79.8292 160.49 79.6882 160.592 79.5142C160.694 79.3402 160.745 79.1558 160.745 78.9608V78.3084C160.709 78.3414 160.642 78.3729 160.543 78.4029C160.444 78.4329 160.331 78.4584 160.205 78.4794C160.079 78.5004 159.956 78.5199 159.836 78.5379C159.716 78.5529 159.616 78.5649 159.535 78.5738C159.346 78.6008 159.174 78.6428 159.018 78.6998C158.862 78.7538 158.736 78.8348 158.64 78.9428C158.547 79.0478 158.5 79.1873 158.5 79.3612C158.5 79.6042 158.59 79.7872 158.77 79.9102C158.95 80.0331 159.178 80.0946 159.454 80.0946ZM159.499 75.1094L158.608 73.8315H159.616L160.246 75.1094H159.499ZM163.634 77.7865V80.7695H162.662V75.7393H163.607V76.5671H163.674C163.788 76.2942 163.967 76.0782 164.21 75.9192C164.453 75.7573 164.765 75.6763 165.146 75.6763C165.488 75.6763 165.786 75.7483 166.041 75.8922C166.299 76.0332 166.499 76.2447 166.639 76.5266C166.783 76.8086 166.855 77.1581 166.855 77.575V80.7695H165.884V77.692C165.884 77.329 165.788 77.0441 165.596 76.8371C165.404 76.6271 165.143 76.5221 164.813 76.5221C164.588 76.5221 164.385 76.5731 164.205 76.6751C164.028 76.7741 163.889 76.9166 163.787 77.1026C163.685 77.2885 163.634 77.5165 163.634 77.7865ZM168.763 77.7865V80.7695H167.791V74.0655H168.75V76.5671H168.817C168.934 76.2942 169.113 76.0782 169.353 75.9192C169.596 75.7573 169.912 75.6763 170.302 75.6763C170.647 75.6763 170.948 75.7468 171.206 75.8877C171.464 76.0287 171.665 76.2402 171.809 76.5221C171.956 76.8041 172.03 77.1551 172.03 77.575V80.7695H171.049V77.692C171.049 77.32 170.953 77.0321 170.761 76.8281C170.572 76.6241 170.308 76.5221 169.969 76.5221C169.735 76.5221 169.528 76.5731 169.348 76.6751C169.168 76.7741 169.026 76.9166 168.921 77.1026C168.816 77.2885 168.763 77.5165 168.763 77.7865Z" fill="#52C41A"/>
<path d="M94.0226 123.4C92.641 123.4 91.4044 123.14 90.3129 122.622C89.2215 122.097 88.3545 121.379 87.712 120.467C87.0765 119.555 86.738 118.512 86.6966 117.338H90.4269C90.496 118.208 90.8725 118.92 91.5564 119.472C92.2403 120.018 93.0624 120.291 94.0226 120.291C94.7756 120.291 95.4456 120.118 96.0328 119.773C96.62 119.427 97.0829 118.947 97.4214 118.332C97.7599 117.718 97.9257 117.016 97.9187 116.229C97.9257 115.428 97.7564 114.716 97.411 114.094C97.0656 113.473 96.5924 112.986 95.9914 112.633C95.3904 112.274 94.6996 112.094 93.919 112.094C93.2834 112.088 92.6582 112.205 92.0434 112.447C91.4286 112.689 90.9416 113.006 90.5824 113.4L87.111 112.83L88.2198 101.888H100.53V105.1H91.401L90.7896 110.727H90.9139C91.3077 110.264 91.8638 109.88 92.5822 109.576C93.3007 109.266 94.0882 109.11 94.9448 109.11C96.2297 109.11 97.3765 109.414 98.385 110.022C99.3936 110.623 100.188 111.452 100.768 112.509C101.349 113.566 101.639 114.775 101.639 116.136C101.639 117.538 101.314 118.788 100.665 119.887C100.022 120.978 99.1277 121.838 97.9809 122.467C96.8411 123.089 95.5216 123.4 94.0226 123.4ZM112.954 123.513C111.248 123.513 109.783 123.082 108.561 122.218C107.345 121.348 106.409 120.094 105.753 118.457C105.103 116.813 104.778 114.833 104.778 112.519C104.785 110.205 105.114 108.236 105.763 106.613C106.419 104.983 107.355 103.739 108.571 102.882C109.794 102.026 111.255 101.598 112.954 101.598C114.654 101.598 116.115 102.026 117.337 102.882C118.56 103.739 119.496 104.983 120.146 106.613C120.802 108.243 121.13 110.212 121.13 112.519C121.13 114.84 120.802 116.823 120.146 118.467C119.496 120.104 118.56 121.355 117.337 122.218C116.122 123.082 114.661 123.513 112.954 123.513ZM112.954 120.27C114.281 120.27 115.327 119.617 116.094 118.312C116.868 116.999 117.254 115.068 117.254 112.519C117.254 110.834 117.078 109.418 116.726 108.271C116.374 107.124 115.876 106.261 115.234 105.68C114.591 105.093 113.832 104.799 112.954 104.799C111.635 104.799 110.592 105.456 109.825 106.768C109.058 108.074 108.671 109.991 108.664 112.519C108.657 114.212 108.827 115.635 109.172 116.788C109.524 117.942 110.022 118.813 110.664 119.4C111.307 119.98 112.07 120.27 112.954 120.27ZM126.099 123.337C125.47 123.337 124.931 123.116 124.482 122.674C124.033 122.232 123.812 121.693 123.819 121.058C123.812 120.436 124.033 119.904 124.482 119.462C124.931 119.02 125.47 118.799 126.099 118.799C126.706 118.799 127.235 119.02 127.684 119.462C128.14 119.904 128.371 120.436 128.378 121.058C128.371 121.479 128.261 121.862 128.047 122.208C127.839 122.553 127.563 122.83 127.218 123.037C126.879 123.237 126.506 123.337 126.099 123.337ZM139.227 123.513C137.521 123.513 136.057 123.082 134.834 122.218C133.618 121.348 132.682 120.094 132.026 118.457C131.376 116.813 131.052 114.833 131.052 112.519C131.059 110.205 131.387 108.236 132.036 106.613C132.692 104.983 133.628 103.739 134.844 102.882C136.067 102.026 137.528 101.598 139.227 101.598C140.927 101.598 142.388 102.026 143.611 102.882C144.833 103.739 145.769 104.983 146.419 106.613C147.075 108.243 147.403 110.212 147.403 112.519C147.403 114.84 147.075 116.823 146.419 118.467C145.769 120.104 144.833 121.355 143.611 122.218C142.395 123.082 140.934 123.513 139.227 123.513ZM139.227 120.27C140.554 120.27 141.6 119.617 142.367 118.312C143.141 116.999 143.528 115.068 143.528 112.519C143.528 110.834 143.352 109.418 142.999 108.271C142.647 107.124 142.15 106.261 141.507 105.68C140.865 105.093 140.105 104.799 139.227 104.799C137.908 104.799 136.865 105.456 136.098 106.768C135.331 108.074 134.944 109.991 134.937 112.519C134.931 114.212 135.1 115.635 135.445 116.788C135.798 117.942 136.295 118.813 136.937 119.4C137.58 119.98 138.343 120.27 139.227 120.27ZM158.69 123.513C156.984 123.513 155.519 123.082 154.297 122.218C153.081 121.348 152.145 120.094 151.488 118.457C150.839 116.813 150.514 114.833 150.514 112.519C150.521 110.205 150.849 108.236 151.499 106.613C152.155 104.983 153.091 103.739 154.307 102.882C155.53 102.026 156.991 101.598 158.69 101.598C160.389 101.598 161.851 102.026 163.073 102.882C164.296 103.739 165.232 104.983 165.881 106.613C166.538 108.243 166.866 110.212 166.866 112.519C166.866 114.84 166.538 116.823 165.881 118.467C165.232 120.104 164.296 121.355 163.073 122.218C161.857 123.082 160.396 123.513 158.69 123.513ZM158.69 120.27C160.016 120.27 161.063 119.617 161.83 118.312C162.604 116.999 162.99 115.068 162.99 112.519C162.99 110.834 162.814 109.418 162.462 108.271C162.11 107.124 161.612 106.261 160.97 105.68C160.327 105.093 159.567 104.799 158.69 104.799C157.371 104.799 156.328 105.456 155.561 106.768C154.794 108.074 154.407 109.991 154.4 112.519C154.393 114.212 154.562 115.635 154.908 116.788C155.26 117.942 155.758 118.813 156.4 119.4C157.042 119.98 157.806 120.27 158.69 120.27ZM178.153 123.513C176.446 123.513 174.982 123.082 173.759 122.218C172.543 121.348 171.607 120.094 170.951 118.457C170.302 116.813 169.977 114.833 169.977 112.519C169.984 110.205 170.312 108.236 170.961 106.613C171.618 104.983 172.554 103.739 173.77 102.882C174.992 102.026 176.453 101.598 178.153 101.598C179.852 101.598 181.313 102.026 182.536 102.882C183.759 103.739 184.695 104.983 185.344 106.613C186 108.243 186.328 110.212 186.328 112.519C186.328 114.84 186 116.823 185.344 118.467C184.695 120.104 183.759 121.355 182.536 122.218C181.32 123.082 179.859 123.513 178.153 123.513ZM178.153 120.27C179.479 120.27 180.526 119.617 181.292 118.312C182.066 116.999 182.453 115.068 182.453 112.519C182.453 110.834 182.277 109.418 181.925 108.271C181.572 107.124 181.075 106.261 180.432 105.68C179.79 105.093 179.03 104.799 178.153 104.799C176.833 104.799 175.79 105.456 175.023 106.768C174.257 108.074 173.87 109.991 173.863 112.519C173.856 114.212 174.025 115.635 174.371 116.788C174.723 117.942 175.22 118.813 175.863 119.4C176.505 119.98 177.269 120.27 178.153 120.27ZM202.957 123.389C201.707 123.389 200.588 123.068 199.6 122.425C198.612 121.783 197.831 120.85 197.258 119.628C196.685 118.405 196.398 116.92 196.398 115.172C196.398 113.404 196.688 111.911 197.268 110.696C197.855 109.473 198.646 108.551 199.641 107.929C200.636 107.3 201.745 106.986 202.967 106.986C203.9 106.986 204.667 107.145 205.268 107.463C205.869 107.773 206.346 108.15 206.698 108.592C207.05 109.027 207.323 109.438 207.516 109.825H207.672V101.888H211.433V123.109H207.744V120.602H207.516C207.323 120.989 207.043 121.4 206.677 121.835C206.311 122.263 205.827 122.629 205.226 122.933C204.625 123.237 203.869 123.389 202.957 123.389ZM204.004 120.312C204.798 120.312 205.475 120.097 206.035 119.669C206.594 119.234 207.019 118.629 207.309 117.856C207.599 117.082 207.744 116.181 207.744 115.151C207.744 114.122 207.599 113.227 207.309 112.467C207.026 111.708 206.605 111.117 206.045 110.696C205.492 110.274 204.812 110.063 204.004 110.063C203.168 110.063 202.47 110.281 201.911 110.716C201.351 111.151 200.93 111.752 200.646 112.519C200.363 113.286 200.222 114.163 200.222 115.151C200.222 116.146 200.363 117.034 200.646 117.814C200.936 118.588 201.361 119.199 201.921 119.648C202.487 120.091 203.182 120.312 204.004 120.312ZM203.465 106.001V103.629H213.392V106.001H203.465Z" fill="#242424"/>
<path d="M45.382 139.525V138.565H52.0891V139.525H49.2815V147.504H48.2016V139.525H45.382ZM54.2224 143.472V147.504H53.2025V138.565H54.2224V141.853H54.3184C54.4743 141.505 54.7083 141.229 55.0203 141.025C55.3362 140.817 55.7581 140.713 56.2861 140.713C56.742 140.713 57.1419 140.805 57.4859 140.989C57.8298 141.169 58.0978 141.447 58.2898 141.823C58.4817 142.195 58.5777 142.669 58.5777 143.245V147.504H57.5459V143.317C57.5459 142.781 57.4079 142.367 57.1319 142.075C56.856 141.783 56.474 141.637 55.9861 141.637C55.6462 141.637 55.3442 141.709 55.0802 141.853C54.8163 141.997 54.6063 142.205 54.4503 142.477C54.2984 142.749 54.2224 143.081 54.2224 143.472ZM62.0188 147.66C61.5949 147.66 61.209 147.58 60.861 147.42C60.5131 147.256 60.2371 147.02 60.0331 146.712C59.8292 146.404 59.7272 146.032 59.7272 145.596C59.7272 145.212 59.8032 144.902 59.9551 144.666C60.1071 144.426 60.3091 144.238 60.561 144.102C60.817 143.962 61.097 143.858 61.4009 143.79C61.7089 143.722 62.0188 143.668 62.3308 143.628C62.7387 143.576 63.0687 143.536 63.3206 143.508C63.5766 143.48 63.7626 143.432 63.8786 143.365C63.9985 143.297 64.0585 143.181 64.0585 143.017V142.981C64.0585 142.553 63.9406 142.221 63.7046 141.985C63.4726 141.745 63.1187 141.625 62.6427 141.625C62.1548 141.625 61.7709 141.733 61.4909 141.949C61.211 142.161 61.015 142.389 60.903 142.633L59.9191 142.285C60.0951 141.877 60.3291 141.559 60.621 141.331C60.917 141.103 61.2369 140.943 61.5809 140.851C61.9288 140.759 62.2708 140.713 62.6068 140.713C62.8227 140.713 63.0707 140.739 63.3506 140.791C63.6306 140.839 63.9026 140.943 64.1665 141.103C64.4345 141.259 64.6545 141.497 64.8264 141.817C65.0024 142.133 65.0904 142.557 65.0904 143.089V147.504H64.0585V146.592H64.0105C63.9426 146.736 63.8266 146.892 63.6626 147.06C63.4986 147.224 63.2807 147.366 63.0087 147.486C62.7407 147.602 62.4108 147.66 62.0188 147.66ZM62.1748 146.736C62.5828 146.736 62.9267 146.656 63.2067 146.496C63.4866 146.336 63.6986 146.13 63.8426 145.878C63.9866 145.622 64.0585 145.356 64.0585 145.08V144.132C64.0145 144.184 63.9186 144.232 63.7706 144.276C63.6266 144.316 63.4586 144.352 63.2667 144.384C63.0787 144.416 62.8947 144.444 62.7147 144.468C62.5348 144.488 62.3908 144.504 62.2828 144.516C62.0148 144.552 61.7649 144.61 61.5329 144.69C61.3009 144.766 61.113 144.88 60.969 145.032C60.829 145.184 60.759 145.392 60.759 145.656C60.759 146.012 60.891 146.282 61.155 146.466C61.4229 146.646 61.7629 146.736 62.1748 146.736ZM67.5836 143.472V147.504H66.5638V140.797H67.5476V141.853H67.6436C67.7996 141.509 68.0376 141.233 68.3575 141.025C68.6775 140.817 69.0914 140.713 69.5993 140.713C70.0513 140.713 70.4472 140.805 70.7872 140.989C71.1271 141.173 71.3911 141.453 71.5791 141.829C71.771 142.201 71.867 142.673 71.867 143.245V147.504H70.8472V143.317C70.8472 142.793 70.7092 142.383 70.4332 142.087C70.1573 141.787 69.7813 141.637 69.3054 141.637C68.9774 141.637 68.6835 141.709 68.4235 141.853C68.1635 141.997 67.9576 142.205 67.8056 142.477C67.6576 142.749 67.5836 143.081 67.5836 143.472ZM74.3602 143.472V147.504H73.3404V138.565H74.3602V141.853H74.4562C74.6122 141.505 74.8462 141.229 75.1581 141.025C75.4741 140.817 75.896 140.713 76.4239 140.713C76.8799 140.713 77.2798 140.805 77.6238 140.989C77.9677 141.169 78.2357 141.447 78.4277 141.823C78.6196 142.195 78.7156 142.669 78.7156 143.245V147.504H77.6838V143.317C77.6838 142.781 77.5458 142.367 77.2698 142.075C76.9939 141.783 76.6119 141.637 76.124 141.637C75.784 141.637 75.4821 141.709 75.2181 141.853C74.9542 141.997 74.7442 142.205 74.5882 142.477C74.4362 142.749 74.3602 143.081 74.3602 143.472ZM86.1257 140.797V141.673H82.6582V140.797H86.1257ZM83.6661 139.201H84.686V145.584C84.686 145.932 84.7579 146.188 84.9019 146.352C85.0459 146.512 85.2739 146.592 85.5858 146.592C85.6538 146.592 85.7238 146.588 85.7958 146.58C85.8718 146.572 85.9538 146.56 86.0418 146.544L86.2577 147.468C86.1617 147.504 86.0438 147.532 85.9038 147.552C85.7678 147.576 85.6298 147.588 85.4898 147.588C84.9499 147.588 84.51 147.428 84.17 147.108C83.8341 146.788 83.6661 146.372 83.6661 145.86V139.201ZM89.9028 147.648C89.2989 147.648 88.769 147.504 88.313 147.216C87.8571 146.928 87.5011 146.524 87.2452 146.004C86.9932 145.484 86.8672 144.88 86.8672 144.192C86.8672 143.492 86.9932 142.883 87.2452 142.363C87.5011 141.839 87.8571 141.433 88.313 141.145C88.769 140.857 89.2989 140.713 89.9028 140.713C90.5107 140.713 91.0426 140.857 91.4986 141.145C91.9545 141.433 92.3104 141.839 92.5664 142.363C92.8224 142.883 92.9503 143.492 92.9503 144.192C92.9503 144.88 92.8224 145.484 92.5664 146.004C92.3104 146.524 91.9545 146.928 91.4986 147.216C91.0426 147.504 90.5107 147.648 89.9028 147.648ZM89.9028 146.724C90.3667 146.724 90.7467 146.606 91.0426 146.37C91.3386 146.134 91.5586 145.824 91.7025 145.44C91.8465 145.052 91.9185 144.636 91.9185 144.192C91.9185 143.74 91.8465 143.321 91.7025 142.933C91.5586 142.545 91.3386 142.233 91.0426 141.997C90.7467 141.757 90.3667 141.637 89.9028 141.637C89.4469 141.637 89.0709 141.757 88.775 141.997C88.479 142.233 88.259 142.545 88.1151 142.933C87.9711 143.321 87.8991 143.74 87.8991 144.192C87.8991 144.636 87.9711 145.052 88.1151 145.44C88.259 145.824 88.479 146.134 88.775 146.37C89.0709 146.606 89.4469 146.724 89.9028 146.724ZM96.0675 147.66C95.6436 147.66 95.2576 147.58 94.9097 147.42C94.5617 147.256 94.2858 147.02 94.0818 146.712C93.8778 146.404 93.7758 146.032 93.7758 145.596C93.7758 145.212 93.8518 144.902 94.0038 144.666C94.1558 144.426 94.3577 144.238 94.6097 144.102C94.8657 143.962 95.1456 143.858 95.4496 143.79C95.7575 143.722 96.0675 143.668 96.3795 143.628C96.7874 143.576 97.1173 143.536 97.3693 143.508C97.6253 143.48 97.8112 143.432 97.9272 143.365C98.0472 143.297 98.1072 143.181 98.1072 143.017V142.981C98.1072 142.553 97.9892 142.221 97.7533 141.985C97.5213 141.745 97.1673 141.625 96.6914 141.625C96.2035 141.625 95.8195 141.733 95.5396 141.949C95.2596 142.161 95.0636 142.389 94.9517 142.633L93.9678 142.285C94.1438 141.877 94.3777 141.559 94.6697 141.331C94.9657 141.103 95.2856 140.943 95.6296 140.851C95.9775 140.759 96.3195 140.713 96.6554 140.713C96.8714 140.713 97.1193 140.739 97.3993 140.791C97.6793 140.839 97.9512 140.943 98.2152 141.103C98.4831 141.259 98.7031 141.497 98.8751 141.817C99.0511 142.133 99.1391 142.557 99.1391 143.089V147.504H98.1072V146.592H98.0592C97.9912 146.736 97.8752 146.892 97.7113 147.06C97.5473 147.224 97.3293 147.366 97.0574 147.486C96.7894 147.602 96.4594 147.66 96.0675 147.66ZM96.2235 146.736C96.6314 146.736 96.9754 146.656 97.2553 146.496C97.5353 146.336 97.7473 146.13 97.8912 145.878C98.0352 145.622 98.1072 145.356 98.1072 145.08V144.132C98.0632 144.184 97.9672 144.232 97.8192 144.276C97.6753 144.316 97.5073 144.352 97.3153 144.384C97.1273 144.416 96.9434 144.444 96.7634 144.468C96.5834 144.488 96.4394 144.504 96.3315 144.516C96.0635 144.552 95.8135 144.61 95.5816 144.69C95.3496 144.766 95.1616 144.88 95.0177 145.032C94.8777 145.184 94.8077 145.392 94.8077 145.656C94.8077 146.012 94.9397 146.282 95.2036 146.466C95.4716 146.646 95.8115 146.736 96.2235 146.736ZM96.2235 139.957L97.0634 138.313H98.2272L97.0754 139.957H96.2235ZM101.632 143.472V147.504H100.612V140.797H101.596V141.853H101.692C101.848 141.509 102.086 141.233 102.406 141.025C102.726 140.817 103.14 140.713 103.648 140.713C104.1 140.713 104.496 140.805 104.836 140.989C105.176 141.173 105.44 141.453 105.628 141.829C105.82 142.201 105.916 142.673 105.916 143.245V147.504H104.896V143.317C104.896 142.793 104.758 142.383 104.482 142.087C104.206 141.787 103.83 141.637 103.354 141.637C103.026 141.637 102.732 141.709 102.472 141.853C102.212 141.997 102.006 142.205 101.854 142.477C101.706 142.749 101.632 143.081 101.632 143.472ZM115.893 140.797L113.422 147.504H112.366L109.894 140.797H111.01L112.858 146.148H112.93L114.778 140.797H115.893ZM118.603 147.66C118.179 147.66 117.793 147.58 117.445 147.42C117.097 147.256 116.821 147.02 116.617 146.712C116.413 146.404 116.311 146.032 116.311 145.596C116.311 145.212 116.387 144.902 116.539 144.666C116.691 144.426 116.893 144.238 117.145 144.102C117.401 143.962 117.681 143.858 117.985 143.79C118.293 143.722 118.603 143.668 118.915 143.628C119.323 143.576 119.652 143.536 119.904 143.508C120.16 143.48 120.346 143.432 120.462 143.365C120.582 143.297 120.642 143.181 120.642 143.017V142.981C120.642 142.553 120.524 142.221 120.288 141.985C120.056 141.745 119.702 141.625 119.227 141.625C118.739 141.625 118.355 141.733 118.075 141.949C117.795 142.161 117.599 142.389 117.487 142.633L116.503 142.285C116.679 141.877 116.913 141.559 117.205 141.331C117.501 141.103 117.821 140.943 118.165 140.851C118.513 140.759 118.855 140.713 119.191 140.713C119.407 140.713 119.654 140.739 119.934 140.791C120.214 140.839 120.486 140.943 120.75 141.103C121.018 141.259 121.238 141.497 121.41 141.817C121.586 142.133 121.674 142.557 121.674 143.089V147.504H120.642V146.592H120.594C120.526 146.736 120.41 146.892 120.246 147.06C120.082 147.224 119.864 147.366 119.592 147.486C119.325 147.602 118.995 147.66 118.603 147.66ZM118.759 146.736C119.167 146.736 119.511 146.656 119.79 146.496C120.07 146.336 120.282 146.13 120.426 145.878C120.57 145.622 120.642 145.356 120.642 145.08V144.132C120.598 144.184 120.502 144.232 120.354 144.276C120.21 144.316 120.042 144.352 119.85 144.384C119.662 144.416 119.479 144.444 119.299 144.468C119.119 144.488 118.975 144.504 118.867 144.516C118.599 144.552 118.349 144.61 118.117 144.69C117.885 144.766 117.697 144.88 117.553 145.032C117.413 145.184 117.343 145.392 117.343 145.656C117.343 146.012 117.475 146.282 117.739 146.466C118.007 146.646 118.347 146.736 118.759 146.736ZM118.915 139.957L117.763 138.313H118.927L119.766 139.957H118.915ZM125.859 147.648C125.255 147.648 124.725 147.504 124.269 147.216C123.813 146.928 123.458 146.524 123.202 146.004C122.95 145.484 122.824 144.88 122.824 144.192C122.824 143.492 122.95 142.883 123.202 142.363C123.458 141.839 123.813 141.433 124.269 141.145C124.725 140.857 125.255 140.713 125.859 140.713C126.467 140.713 126.999 140.857 127.455 141.145C127.911 141.433 128.267 141.839 128.523 142.363C128.779 142.883 128.907 143.492 128.907 144.192C128.907 144.88 128.779 145.484 128.523 146.004C128.267 146.524 127.911 146.928 127.455 147.216C126.999 147.504 126.467 147.648 125.859 147.648ZM125.859 146.724C126.323 146.724 126.703 146.606 126.999 146.37C127.295 146.134 127.515 145.824 127.659 145.44C127.803 145.052 127.875 144.636 127.875 144.192C127.875 143.74 127.803 143.321 127.659 142.933C127.515 142.545 127.295 142.233 126.999 141.997C126.703 141.757 126.323 141.637 125.859 141.637C125.403 141.637 125.027 141.757 124.731 141.997C124.435 142.233 124.215 142.545 124.071 142.933C123.927 143.321 123.855 143.74 123.855 144.192C123.855 144.636 123.927 145.052 124.071 145.44C124.215 145.824 124.435 146.134 124.731 146.37C125.027 146.606 125.403 146.724 125.859 146.724ZM136.005 138.565V147.504H134.949V139.705H134.889L132.717 141.157V140.053L134.949 138.565H136.005ZM137.862 147.504L141.858 139.597V139.525H137.25V138.565H142.985V139.585L139.002 147.504H137.862ZM147.254 138.145L144.375 148.848H143.427L146.307 138.145H147.254ZM150.948 147.624C150.292 147.624 149.732 147.444 149.268 147.084C148.804 146.724 148.45 146.204 148.206 145.524C147.962 144.84 147.84 144.012 147.84 143.041C147.84 142.073 147.962 141.247 148.206 140.563C148.454 139.875 148.81 139.351 149.274 138.991C149.738 138.627 150.296 138.445 150.948 138.445C151.599 138.445 152.157 138.627 152.621 138.991C153.085 139.351 153.439 139.875 153.683 140.563C153.931 141.247 154.055 142.073 154.055 143.041C154.055 144.012 153.933 144.84 153.689 145.524C153.445 146.204 153.091 146.724 152.627 147.084C152.167 147.444 151.607 147.624 150.948 147.624ZM150.948 146.676C151.391 146.676 151.767 146.534 152.075 146.25C152.383 145.962 152.617 145.546 152.777 145.002C152.941 144.458 153.023 143.804 153.023 143.041C153.023 142.273 152.941 141.617 152.777 141.073C152.617 140.529 152.383 140.113 152.075 139.825C151.767 139.537 151.391 139.393 150.948 139.393C150.284 139.393 149.772 139.713 149.412 140.353C149.052 140.993 148.872 141.889 148.872 143.041C148.872 143.804 148.952 144.458 149.112 145.002C149.276 145.546 149.512 145.962 149.82 146.25C150.132 146.534 150.508 146.676 150.948 146.676ZM158.204 147.624C157.84 147.624 157.474 147.558 157.106 147.426C156.738 147.29 156.402 147.064 156.098 146.748C155.798 146.428 155.556 145.994 155.372 145.446C155.189 144.898 155.097 144.212 155.097 143.389C155.097 142.597 155.171 141.895 155.319 141.283C155.47 140.671 155.686 140.155 155.966 139.735C156.25 139.311 156.592 138.991 156.992 138.775C157.392 138.555 157.844 138.445 158.348 138.445C158.848 138.445 159.292 138.545 159.68 138.745C160.072 138.945 160.392 139.223 160.64 139.579C160.888 139.931 161.048 140.337 161.12 140.797H160.064C159.964 140.397 159.77 140.065 159.482 139.801C159.198 139.537 158.82 139.405 158.348 139.405C157.656 139.405 157.11 139.707 156.71 140.311C156.314 140.911 156.116 141.757 156.116 142.849H156.188C156.352 142.601 156.546 142.389 156.77 142.213C156.994 142.033 157.242 141.897 157.514 141.805C157.786 141.709 158.076 141.661 158.384 141.661C158.896 141.661 159.364 141.789 159.788 142.045C160.212 142.297 160.552 142.647 160.808 143.095C161.064 143.538 161.192 144.048 161.192 144.624C161.192 145.176 161.068 145.68 160.82 146.136C160.576 146.588 160.23 146.95 159.782 147.222C159.334 147.49 158.808 147.624 158.204 147.624ZM158.204 146.664C158.572 146.664 158.902 146.574 159.194 146.394C159.486 146.21 159.718 145.964 159.89 145.656C160.062 145.344 160.148 145 160.148 144.624C160.148 144.252 160.064 143.916 159.896 143.616C159.732 143.313 159.506 143.071 159.218 142.891C158.934 142.711 158.608 142.621 158.24 142.621C157.872 142.621 157.538 142.715 157.238 142.903C156.942 143.091 156.706 143.339 156.53 143.646C156.358 143.95 156.272 144.28 156.272 144.636C156.272 144.992 156.356 145.326 156.524 145.638C156.692 145.946 156.92 146.194 157.208 146.382C157.5 146.57 157.832 146.664 158.204 146.664ZM165.605 138.145L162.725 148.848H161.777L164.657 138.145H165.605ZM166.382 147.504V146.724L169.334 143.484C169.678 143.109 169.96 142.781 170.18 142.501C170.404 142.221 170.569 141.957 170.677 141.709C170.789 141.461 170.845 141.201 170.845 140.929C170.845 140.613 170.769 140.341 170.617 140.113C170.47 139.881 170.268 139.703 170.012 139.579C169.756 139.455 169.466 139.393 169.142 139.393C168.798 139.393 168.498 139.463 168.242 139.603C167.99 139.743 167.794 139.941 167.654 140.197C167.518 140.449 167.45 140.745 167.45 141.085H166.418C166.418 140.561 166.538 140.101 166.778 139.705C167.022 139.309 167.352 139.001 167.768 138.781C168.188 138.557 168.658 138.445 169.178 138.445C169.702 138.445 170.166 138.557 170.569 138.781C170.973 139.001 171.289 139.299 171.517 139.675C171.749 140.047 171.865 140.465 171.865 140.929C171.865 141.257 171.805 141.577 171.685 141.889C171.569 142.197 171.365 142.543 171.073 142.927C170.785 143.311 170.386 143.776 169.874 144.324L167.87 146.472V146.544H172.021V147.504H166.382ZM176.314 147.624C175.658 147.624 175.098 147.444 174.635 147.084C174.171 146.724 173.817 146.204 173.573 145.524C173.329 144.84 173.207 144.012 173.207 143.041C173.207 142.073 173.329 141.247 173.573 140.563C173.821 139.875 174.177 139.351 174.641 138.991C175.104 138.627 175.662 138.445 176.314 138.445C176.966 138.445 177.524 138.627 177.988 138.991C178.452 139.351 178.806 139.875 179.05 140.563C179.298 141.247 179.422 142.073 179.422 143.041C179.422 144.012 179.3 144.84 179.056 145.524C178.812 146.204 178.458 146.724 177.994 147.084C177.534 147.444 176.974 147.624 176.314 147.624ZM176.314 146.676C176.758 146.676 177.134 146.534 177.442 146.25C177.75 145.962 177.984 145.546 178.144 145.002C178.308 144.458 178.39 143.804 178.39 143.041C178.39 142.273 178.308 141.617 178.144 141.073C177.984 140.529 177.75 140.113 177.442 139.825C177.134 139.537 176.758 139.393 176.314 139.393C175.65 139.393 175.138 139.713 174.778 140.353C174.419 140.993 174.239 141.889 174.239 143.041C174.239 143.804 174.319 144.458 174.479 145.002C174.643 145.546 174.878 145.962 175.186 146.25C175.498 146.534 175.874 146.676 176.314 146.676ZM180.655 147.504V146.724L183.607 143.484C183.951 143.109 184.233 142.781 184.453 142.501C184.677 142.221 184.843 141.957 184.951 141.709C185.063 141.461 185.119 141.201 185.119 140.929C185.119 140.613 185.043 140.341 184.891 140.113C184.743 139.881 184.541 139.703 184.285 139.579C184.029 139.455 183.739 139.393 183.415 139.393C183.071 139.393 182.771 139.463 182.515 139.603C182.263 139.743 182.067 139.941 181.927 140.197C181.791 140.449 181.723 140.745 181.723 141.085H180.691C180.691 140.561 180.811 140.101 181.051 139.705C181.295 139.309 181.625 139.001 182.041 138.781C182.461 138.557 182.931 138.445 183.451 138.445C183.975 138.445 184.439 138.557 184.843 138.781C185.247 139.001 185.563 139.299 185.79 139.675C186.022 140.047 186.138 140.465 186.138 140.929C186.138 141.257 186.078 141.577 185.958 141.889C185.842 142.197 185.639 142.543 185.347 142.927C185.059 143.311 184.659 143.776 184.147 144.324L182.143 146.472V146.544H186.294V147.504H180.655ZM187.276 145.668V144.78L191.199 138.565H191.847V139.945H191.403L188.44 144.636V144.708H193.731V145.668H187.276ZM191.475 147.504V145.404V144.984V138.565H192.507V147.504H191.475ZM199.497 135.686V150.383H198.621V135.686H199.497ZM207.519 147.624C206.863 147.624 206.304 147.444 205.84 147.084C205.376 146.724 205.022 146.204 204.778 145.524C204.534 144.84 204.412 144.012 204.412 143.041C204.412 142.073 204.534 141.247 204.778 140.563C205.026 139.875 205.382 139.351 205.846 138.991C206.31 138.627 206.867 138.445 207.519 138.445C208.171 138.445 208.729 138.627 209.193 138.991C209.657 139.351 210.011 139.875 210.255 140.563C210.503 141.247 210.627 142.073 210.627 143.041C210.627 144.012 210.505 144.84 210.261 145.524C210.017 146.204 209.663 146.724 209.199 147.084C208.739 147.444 208.179 147.624 207.519 147.624ZM207.519 146.676C207.963 146.676 208.339 146.534 208.647 146.25C208.955 145.962 209.189 145.546 209.349 145.002C209.513 144.458 209.595 143.804 209.595 143.041C209.595 142.273 209.513 141.617 209.349 141.073C209.189 140.529 208.955 140.113 208.647 139.825C208.339 139.537 207.963 139.393 207.519 139.393C206.855 139.393 206.344 139.713 205.984 140.353C205.624 140.993 205.444 141.889 205.444 143.041C205.444 143.804 205.524 144.458 205.684 145.002C205.848 145.546 206.084 145.962 206.391 146.25C206.703 146.534 207.079 146.676 207.519 146.676ZM214.704 147.624C214.104 147.624 213.576 147.518 213.12 147.306C212.664 147.09 212.308 146.794 212.052 146.418C211.796 146.042 211.668 145.612 211.668 145.128C211.668 144.752 211.742 144.404 211.89 144.084C212.042 143.76 212.248 143.49 212.508 143.275C212.772 143.059 213.068 142.921 213.396 142.861V142.813C212.968 142.701 212.626 142.459 212.37 142.087C212.118 141.715 211.992 141.293 211.992 140.821C211.992 140.365 212.108 139.959 212.34 139.603C212.572 139.243 212.892 138.961 213.3 138.757C213.712 138.549 214.18 138.445 214.704 138.445C215.22 138.445 215.682 138.549 216.09 138.757C216.498 138.961 216.818 139.243 217.05 139.603C217.286 139.959 217.403 140.365 217.403 140.821C217.403 141.293 217.276 141.715 217.02 142.087C216.764 142.459 216.428 142.701 216.012 142.813V142.861C216.332 142.921 216.622 143.059 216.882 143.275C217.146 143.49 217.354 143.76 217.505 144.084C217.661 144.404 217.739 144.752 217.739 145.128C217.739 145.612 217.609 146.042 217.35 146.418C217.094 146.794 216.738 147.09 216.282 147.306C215.826 147.518 215.3 147.624 214.704 147.624ZM214.704 146.664C215.108 146.664 215.456 146.6 215.748 146.472C216.044 146.34 216.272 146.156 216.432 145.92C216.592 145.68 216.672 145.4 216.672 145.08C216.672 144.744 216.586 144.446 216.414 144.186C216.242 143.926 216.008 143.722 215.712 143.574C215.416 143.426 215.08 143.353 214.704 143.353C214.32 143.353 213.978 143.426 213.678 143.574C213.382 143.722 213.148 143.926 212.976 144.186C212.808 144.446 212.724 144.744 212.724 145.08C212.724 145.4 212.804 145.68 212.964 145.92C213.124 146.156 213.352 146.34 213.648 146.472C213.944 146.6 214.296 146.664 214.704 146.664ZM214.704 142.429C215.024 142.429 215.308 142.365 215.556 142.237C215.804 142.109 216 141.931 216.144 141.703C216.288 141.471 216.36 141.201 216.36 140.893C216.36 140.589 216.29 140.325 216.15 140.101C216.01 139.877 215.816 139.703 215.568 139.579C215.32 139.455 215.032 139.393 214.704 139.393C214.368 139.393 214.074 139.455 213.822 139.579C213.574 139.703 213.38 139.877 213.24 140.101C213.104 140.325 213.036 140.589 213.036 140.893C213.036 141.201 213.106 141.471 213.246 141.703C213.39 141.931 213.586 142.109 213.834 142.237C214.086 142.365 214.376 142.429 214.704 142.429ZM219.795 146.316C219.579 146.316 219.393 146.24 219.237 146.088C219.085 145.932 219.009 145.746 219.009 145.53C219.009 145.314 219.085 145.13 219.237 144.978C219.393 144.822 219.579 144.744 219.795 144.744C220.011 144.744 220.195 144.822 220.347 144.978C220.503 145.13 220.581 145.314 220.581 145.53C220.581 145.746 220.503 145.932 220.347 146.088C220.195 146.24 220.011 146.316 219.795 146.316ZM219.795 141.463C219.579 141.463 219.393 141.387 219.237 141.235C219.085 141.079 219.009 140.893 219.009 140.677C219.009 140.461 219.085 140.277 219.237 140.125C219.393 139.969 219.579 139.891 219.795 139.891C220.011 139.891 220.195 139.969 220.347 140.125C220.503 140.277 220.581 140.461 220.581 140.677C220.581 140.893 220.503 141.079 220.347 141.235C220.195 141.387 220.011 141.463 219.795 141.463ZM222.042 147.504V146.724L224.994 143.484C225.338 143.109 225.62 142.781 225.839 142.501C226.063 142.221 226.229 141.957 226.337 141.709C226.449 141.461 226.505 141.201 226.505 140.929C226.505 140.613 226.429 140.341 226.277 140.113C226.129 139.881 225.927 139.703 225.672 139.579C225.416 139.455 225.126 139.393 224.802 139.393C224.458 139.393 224.158 139.463 223.902 139.603C223.65 139.743 223.454 139.941 223.314 140.197C223.178 140.449 223.11 140.745 223.11 141.085H222.078C222.078 140.561 222.198 140.101 222.438 139.705C222.682 139.309 223.012 139.001 223.428 138.781C223.848 138.557 224.318 138.445 224.838 138.445C225.362 138.445 225.825 138.557 226.229 138.781C226.633 139.001 226.949 139.299 227.177 139.675C227.409 140.047 227.525 140.465 227.525 140.929C227.525 141.257 227.465 141.577 227.345 141.889C227.229 142.197 227.025 142.543 226.733 142.927C226.445 143.311 226.045 143.776 225.534 144.324L223.53 146.472V146.544H227.681V147.504H222.042ZM231.902 147.624C231.302 147.624 230.774 147.518 230.318 147.306C229.863 147.09 229.507 146.794 229.251 146.418C228.995 146.042 228.867 145.612 228.867 145.128C228.867 144.752 228.941 144.404 229.089 144.084C229.241 143.76 229.447 143.49 229.707 143.275C229.97 143.059 230.266 142.921 230.594 142.861V142.813C230.166 142.701 229.825 142.459 229.569 142.087C229.317 141.715 229.191 141.293 229.191 140.821C229.191 140.365 229.307 139.959 229.539 139.603C229.771 139.243 230.09 138.961 230.498 138.757C230.91 138.549 231.378 138.445 231.902 138.445C232.418 138.445 232.88 138.549 233.288 138.757C233.696 138.961 234.016 139.243 234.248 139.603C234.484 139.959 234.602 140.365 234.602 140.821C234.602 141.293 234.474 141.715 234.218 142.087C233.962 142.459 233.626 142.701 233.21 142.813V142.861C233.53 142.921 233.82 143.059 234.08 143.275C234.344 143.49 234.552 143.76 234.704 144.084C234.86 144.404 234.938 144.752 234.938 145.128C234.938 145.612 234.808 146.042 234.548 146.418C234.292 146.794 233.936 147.09 233.48 147.306C233.024 147.518 232.498 147.624 231.902 147.624ZM231.902 146.664C232.306 146.664 232.654 146.6 232.946 146.472C233.242 146.34 233.47 146.156 233.63 145.92C233.79 145.68 233.87 145.4 233.87 145.08C233.87 144.744 233.784 144.446 233.612 144.186C233.44 143.926 233.206 143.722 232.91 143.574C232.614 143.426 232.278 143.353 231.902 143.353C231.518 143.353 231.176 143.426 230.876 143.574C230.58 143.722 230.346 143.926 230.174 144.186C230.006 144.446 229.922 144.744 229.922 145.08C229.922 145.4 230.002 145.68 230.162 145.92C230.322 146.156 230.55 146.34 230.846 146.472C231.142 146.6 231.494 146.664 231.902 146.664ZM231.902 142.429C232.222 142.429 232.506 142.365 232.754 142.237C233.002 142.109 233.198 141.931 233.342 141.703C233.486 141.471 233.558 141.201 233.558 140.893C233.558 140.589 233.488 140.325 233.348 140.101C233.208 139.877 233.014 139.703 232.766 139.579C232.518 139.455 232.23 139.393 231.902 139.393C231.566 139.393 231.272 139.455 231.02 139.579C230.772 139.703 230.578 139.877 230.438 140.101C230.302 140.325 230.234 140.589 230.234 140.893C230.234 141.201 230.304 141.471 230.444 141.703C230.588 141.931 230.784 142.109 231.032 142.237C231.284 142.365 231.574 142.429 231.902 142.429ZM236.993 146.316C236.777 146.316 236.591 146.24 236.435 146.088C236.283 145.932 236.207 145.746 236.207 145.53C236.207 145.314 236.283 145.13 236.435 144.978C236.591 144.822 236.777 144.744 236.993 144.744C237.209 144.744 237.393 144.822 237.545 144.978C237.701 145.13 237.779 145.314 237.779 145.53C237.779 145.746 237.701 145.932 237.545 146.088C237.393 146.24 237.209 146.316 236.993 146.316ZM236.993 141.463C236.777 141.463 236.591 141.387 236.435 141.235C236.283 141.079 236.207 140.893 236.207 140.677C236.207 140.461 236.283 140.277 236.435 140.125C236.591 139.969 236.777 139.891 236.993 139.891C237.209 139.891 237.393 139.969 237.545 140.125C237.701 140.277 237.779 140.461 237.779 140.677C237.779 140.893 237.701 141.079 237.545 141.235C237.393 141.387 237.209 141.463 236.993 141.463ZM242.156 147.624C241.5 147.624 240.94 147.444 240.476 147.084C240.012 146.724 239.658 146.204 239.414 145.524C239.17 144.84 239.048 144.012 239.048 143.041C239.048 142.073 239.17 141.247 239.414 140.563C239.662 139.875 240.018 139.351 240.482 138.991C240.946 138.627 241.504 138.445 242.156 138.445C242.808 138.445 243.366 138.627 243.83 138.991C244.294 139.351 244.648 139.875 244.892 140.563C245.139 141.247 245.263 142.073 245.263 143.041C245.263 144.012 245.141 144.84 244.898 145.524C244.654 146.204 244.3 146.724 243.836 147.084C243.376 147.444 242.816 147.624 242.156 147.624ZM242.156 146.676C242.6 146.676 242.976 146.534 243.284 146.25C243.592 145.962 243.826 145.546 243.986 145.002C244.15 144.458 244.232 143.804 244.232 143.041C244.232 142.273 244.15 141.617 243.986 141.073C243.826 140.529 243.592 140.113 243.284 139.825C242.976 139.537 242.6 139.393 242.156 139.393C241.492 139.393 240.98 139.713 240.62 140.353C240.26 140.993 240.08 141.889 240.08 143.041C240.08 143.804 240.16 144.458 240.32 145.002C240.484 145.546 240.72 145.962 241.028 146.25C241.34 146.534 241.716 146.676 242.156 146.676ZM249.292 138.445C249.66 138.449 250.026 138.519 250.39 138.655C250.758 138.791 251.094 139.017 251.398 139.333C251.702 139.649 251.944 140.079 252.124 140.623C252.308 141.167 252.4 141.849 252.4 142.669C252.4 143.464 252.326 144.17 252.178 144.786C252.03 145.398 251.814 145.916 251.53 146.34C251.25 146.76 250.91 147.08 250.51 147.3C250.11 147.516 249.66 147.624 249.16 147.624C248.661 147.624 248.213 147.524 247.817 147.324C247.425 147.124 247.105 146.846 246.857 146.49C246.609 146.134 246.449 145.72 246.377 145.248H247.445C247.541 145.66 247.733 146 248.021 146.268C248.309 146.532 248.689 146.664 249.16 146.664C249.848 146.664 250.39 146.364 250.786 145.764C251.186 145.16 251.388 144.308 251.392 143.209H251.32C251.156 143.452 250.962 143.664 250.738 143.844C250.514 144.02 250.266 144.156 249.994 144.252C249.722 144.348 249.432 144.396 249.125 144.396C248.613 144.396 248.143 144.27 247.715 144.018C247.287 143.762 246.945 143.412 246.689 142.969C246.437 142.521 246.309 142.009 246.305 141.433C246.309 140.885 246.433 140.385 246.677 139.933C246.925 139.477 247.271 139.113 247.715 138.841C248.163 138.569 248.689 138.437 249.292 138.445ZM249.292 139.405C248.929 139.405 248.599 139.497 248.303 139.681C248.011 139.861 247.781 140.105 247.613 140.413C247.445 140.717 247.361 141.057 247.361 141.433C247.361 141.805 247.441 142.143 247.601 142.447C247.765 142.751 247.991 142.993 248.279 143.173C248.567 143.349 248.893 143.436 249.256 143.436C249.624 143.436 249.956 143.343 250.252 143.155C250.552 142.963 250.79 142.713 250.966 142.405C251.146 142.097 251.236 141.765 251.236 141.409C251.236 141.061 251.152 140.735 250.984 140.431C250.816 140.123 250.586 139.875 250.294 139.687C250.002 139.499 249.668 139.405 249.292 139.405Z" fill="#242424"/>
<path d="M44.6981 168.059H253.564" stroke="black" stroke-opacity="0.06" stroke-width="0.767889"/>
</g>
</g>
<defs>
<filter id="filter0_d_2_57011" x="0.160557" y="0.928445" width="302.548" height="183.991" filterUnits="userSpaceOnUse" color-interpolation-filters="sRGB">
<feFlood flood-opacity="0" result="BackgroundImageFix"/>
<feColorMatrix in="SourceAlpha" type="matrix" values="0 0 0 0 0 0 0 0 0 0 0 0 0 0 0 0 0 0 127 0" result="hardAlpha"/>
<feOffset dx="2.30367" dy="3.07155"/>
<feGaussianBlur stdDeviation="3.07155"/>
<feColorMatrix type="matrix" values="0 0 0 0 0.0862745 0 0 0 0 0.117647 0 0 0 0 0.176471 0 0 0 0.09 0"/>
<feBlend mode="normal" in2="BackgroundImageFix" result="effect1_dropShadow_2_57011"/>
<feBlend mode="normal" in="SourceGraphic" in2="effect1_dropShadow_2_57011" result="shape"/>
</filter>
<clipPath id="clip0_2_57011">
<rect width="290.262" height="125.132" fill="white" transform="translate(4 50.5723)"/>
</clipPath>
</defs>
</svg>
