<svg width="205" height="408" viewBox="0 0 205 408" fill="none" xmlns="http://www.w3.org/2000/svg">
<g filter="url(#filter0_d_2_57008)">
<rect width="184" height="429" transform="translate(0 6)" fill="white"/>
<path d="M84.2836 39.168C84.0245 39.1728 83.7846 39.1536 83.5639 39.1104C83.348 39.072 83.1729 39.0264 83.0385 38.9736L83.4847 37.4983L83.5783 37.527C83.9621 37.6278 84.2884 37.635 84.5571 37.5486C84.8306 37.4623 85.0489 37.2008 85.212 36.7642L85.3704 36.3324L82.4628 28.1134H84.4707L86.3204 34.1949H86.4067L88.2635 28.1134H90.2859L87.0616 37.1312C86.9129 37.5582 86.7162 37.9229 86.4715 38.2252C86.2268 38.5322 85.9245 38.7649 85.5647 38.9233C85.2048 39.0864 84.7778 39.168 84.2836 39.168Z" fill="#313131"/>
<path d="M77.7488 36.3252C77.2354 36.3252 76.7748 36.234 76.367 36.0517C75.9591 35.8645 75.6377 35.5911 75.4026 35.2312C75.1675 34.8714 75.0499 34.4276 75.0499 33.8998C75.0499 33.4488 75.1339 33.0745 75.3018 32.7771C75.4697 32.4796 75.6976 32.2421 75.9855 32.0646C76.2782 31.887 76.6068 31.7527 76.9715 31.6615C77.3361 31.5656 77.7128 31.4984 78.1014 31.46C78.5764 31.4072 78.9603 31.3616 79.2529 31.3233C79.5456 31.2849 79.7567 31.2225 79.8863 31.1361C80.0206 31.0498 80.0878 30.9154 80.0878 30.7331V30.6971C80.0878 30.3085 79.9726 30.0062 79.7423 29.7903C79.512 29.5744 79.1762 29.4664 78.7348 29.4664C78.2693 29.4664 77.8999 29.5672 77.6264 29.7687C77.3577 29.9702 77.1754 30.2077 77.0794 30.4812L75.3162 30.2293C75.4553 29.7399 75.6856 29.3321 76.0071 29.0058C76.3286 28.6748 76.7196 28.4277 77.1802 28.2646C77.6456 28.0966 78.159 28.0127 78.7204 28.0127C79.1042 28.0127 79.488 28.0582 79.8719 28.1494C80.2557 28.2358 80.6084 28.3845 80.9298 28.5956C81.2513 28.8067 81.508 29.0898 81.6999 29.4449C81.8918 29.7999 81.9878 30.2437 81.9878 30.7763V36.1596H80.1669V35.0513H80.1094C79.9942 35.272 79.8311 35.4807 79.62 35.6774C79.4137 35.8693 79.1546 36.0253 78.8427 36.1452C78.5356 36.2652 78.171 36.3252 77.7488 36.3252ZM78.231 34.9289C78.6148 34.9289 78.9459 34.8546 79.2241 34.7058C79.5024 34.5523 79.7183 34.3508 79.8719 34.1013C80.0254 33.847 80.1022 33.5711 80.1022 33.2736V32.3308C80.0398 32.3788 79.939 32.4244 79.7999 32.4676C79.6608 32.506 79.5024 32.542 79.3249 32.5755C79.1474 32.6091 78.9723 32.6379 78.7995 32.6619C78.6316 32.6859 78.4853 32.7051 78.3605 32.7195C78.0774 32.7579 77.8231 32.8226 77.5976 32.9138C77.3769 33.0002 77.2018 33.1201 77.0723 33.2736C76.9427 33.4272 76.8779 33.6263 76.8779 33.871C76.8779 34.2212 77.0051 34.4851 77.2594 34.6627C77.5137 34.8402 77.8375 34.9289 78.231 34.9289Z" fill="#313131"/>
<path d="M66.7158 36.1596V25.4362H70.7389C71.5642 25.4362 72.2551 25.5897 72.8116 25.8968C73.373 26.2038 73.7976 26.626 74.0855 27.1634C74.3734 27.7008 74.5173 28.3101 74.5173 28.9914C74.5173 29.6776 74.371 30.2893 74.0783 30.8267C73.7904 31.3593 73.3634 31.7791 72.7973 32.0861C72.2311 32.3884 71.5354 32.5396 70.7101 32.5396H68.0473V30.9418H70.4438C70.9284 30.9418 71.3243 30.8603 71.6313 30.6971C71.9432 30.5292 72.1711 30.2989 72.3151 30.0062C72.4638 29.7087 72.5382 29.3705 72.5382 28.9914C72.5382 28.6076 72.4638 28.2718 72.3151 27.9839C72.1711 27.6912 71.9432 27.4657 71.6313 27.3074C71.3243 27.1442 70.926 27.0627 70.4367 27.0627H68.659V36.1596H66.7158Z" fill="#313131"/>
<path d="M65.442 30.2509L63.7219 30.4308C63.6499 30.167 63.494 29.9343 63.2541 29.7327C63.0142 29.5264 62.6759 29.4233 62.2393 29.4233C61.8459 29.4233 61.5148 29.5096 61.2461 29.6824C60.9822 29.8551 60.8503 30.0758 60.8503 30.3445C60.8503 30.5796 60.9367 30.7739 61.1094 30.9274C61.2869 31.0762 61.5796 31.1961 61.9874 31.2873L63.362 31.5752C64.1153 31.7335 64.6791 31.9926 65.0533 32.3524C65.4276 32.7123 65.6147 33.1777 65.6147 33.7486C65.6147 34.2524 65.4683 34.6986 65.1757 35.0873C64.883 35.4759 64.4776 35.7782 63.9594 35.9941C63.446 36.21 62.8535 36.318 62.1817 36.318C61.1982 36.318 60.4065 36.1116 59.8067 35.699C59.2118 35.2816 58.8543 34.7034 58.7344 33.9646L60.584 33.7918C60.6656 34.1517 60.8431 34.4252 61.1166 34.6123C61.3949 34.7946 61.7499 34.8858 62.1817 34.8858C62.6327 34.8858 62.995 34.7946 63.2685 34.6123C63.542 34.4252 63.6787 34.1973 63.6787 33.9286C63.6787 33.4776 63.3189 33.1705 62.5992 33.0074L61.2245 32.7195C60.4521 32.5515 59.8811 32.2805 59.5117 31.9062C59.1422 31.5272 58.9575 31.045 58.9575 30.4596C58.9575 29.9606 59.0942 29.5288 59.3677 29.1642C59.6412 28.7995 60.0226 28.5165 60.512 28.3149C61.0014 28.1134 61.5676 28.0127 62.2105 28.0127C63.1557 28.0127 63.897 28.2166 64.4344 28.6244C64.9766 29.0274 65.3124 29.5696 65.442 30.2509Z" fill="#313131"/>
<path d="M55.798 36.1596V28.1134H57.6908V36.1596H55.798ZM56.748 26.9835C56.4458 26.9835 56.1867 26.8827 55.9708 26.6812C55.7548 26.4797 55.6469 26.2374 55.6469 25.9543C55.6469 25.6665 55.7548 25.4218 55.9708 25.2202C56.1867 25.0187 56.4458 24.918 56.748 24.918C57.0455 24.918 57.3022 25.0187 57.5181 25.2202C57.734 25.4218 57.842 25.6641 57.842 25.9471C57.842 26.235 57.734 26.4797 57.5181 26.6812C57.3022 26.8827 57.0455 26.9835 56.748 26.9835Z" fill="#313131"/>
<path d="M43.8151 36.1596L40.7924 25.4362H42.8795L44.8155 33.3168H44.909L46.9746 25.4362H48.8817L50.9329 33.324H51.0408L52.9624 25.4362H55.0639L52.034 36.1596H50.1124L47.9677 28.646H47.8814L45.7439 36.1596H43.8151Z" fill="#313131"/>
<circle cx="21.283" cy="30.8294" r="14.1887" fill="#6537FD"/>
<path fill-rule="evenodd" clip-rule="evenodd" d="M24.8933 33.5644L21.8484 27.0598C21.756 26.8583 21.5119 26.6358 21.3695 26.8584C21.2647 27.0221 21.1336 27.2279 20.9874 27.4585L24.4416 34.8257L24.8966 33.7592C24.9233 33.6968 24.9221 33.6259 24.8933 33.5644ZM24.2128 35.3618L23.6913 36.584C23.6515 36.6771 23.5574 36.7349 23.4561 36.7306C23.2362 36.7214 22.9235 36.7164 22.7137 36.7395C22.4551 36.768 22.1987 36.552 22.0861 36.4225C22.0739 36.4086 22.0642 36.3928 22.0562 36.3762L19.3567 30.7506C19.2476 30.5231 19.2554 30.2573 19.3843 30.0405C19.716 29.4821 20.2488 28.628 20.7117 27.8944L24.2128 35.3618Z" fill="url(#paint0_linear_2_57008)"/>
<path fill-rule="evenodd" clip-rule="evenodd" d="M15.4327 33.5644L12.3878 27.0598C12.2954 26.8583 12.0514 26.6358 11.909 26.8584C11.8042 27.0221 11.6731 27.2279 11.5269 27.4585L14.981 34.8257L15.4361 33.7592C15.4627 33.6968 15.4615 33.6259 15.4327 33.5644ZM14.7522 35.3618L14.2307 36.584C14.191 36.6771 14.0968 36.7349 13.9956 36.7306C13.7757 36.7214 13.4629 36.7164 13.2531 36.7395C12.9945 36.768 12.7381 36.552 12.6255 36.4225C12.6134 36.4086 12.6036 36.3928 12.5956 36.3762L9.89616 30.7506C9.78703 30.5231 9.79484 30.2573 9.92369 30.0405C10.2554 29.4821 10.7882 28.628 11.2511 27.8944L14.7522 35.3618Z" fill="url(#paint1_linear_2_57008)"/>
<path d="M26.6586 36.7395H25.4759H23.7673H23.4453H22.7042C22.9168 36.7395 23.1317 36.6276 23.4981 35.7699L27.948 25.3526C28.0606 25.089 28.3196 24.918 28.6062 24.918H31.8196C31.9907 24.918 32.1062 25.0929 32.039 25.2503L27.3168 36.3049C27.2042 36.5685 26.9453 36.7395 26.6586 36.7395Z" fill="white"/>
<path d="M17.2364 36.7395H16.0536H14.3451H14.023H13.282C13.4946 36.7395 13.7095 36.6276 14.0758 35.7699L18.5258 25.3526C18.6384 25.089 18.8973 24.918 19.184 24.918H22.3973C22.5685 24.918 22.684 25.0929 22.6167 25.2503L17.8946 36.3049C17.782 36.5685 17.523 36.7395 17.2364 36.7395Z" fill="white"/>
<path d="M7.09436 69.2635C7.09436 65.6694 10.0079 62.7559 13.602 62.7559H170.398C173.992 62.7559 176.906 65.6694 176.906 69.2635V91.7201C176.906 95.3141 173.992 98.2277 170.398 98.2277H13.602C10.0079 98.2277 7.09436 95.3141 7.09436 91.7201V69.2635Z" fill="#F0EBFF"/>
<path d="M40.643 79.5786L40.6402 79.5675L39.0856 75.6171C39.0163 75.394 38.8098 75.2402 38.5757 75.2402H32.2739C32.0383 75.2402 31.8291 75.3968 31.7626 75.6227L30.3091 79.5329L30.3049 79.5426L30.3021 79.5537C30.2841 79.6216 30.2786 79.6908 30.2883 79.7587C30.2869 79.7809 30.2855 79.8031 30.2855 79.8252V84.8952C30.2859 85.1185 30.3748 85.3326 30.5327 85.4905C30.6906 85.6484 30.9047 85.7373 31.128 85.7377H39.8186C40.2828 85.7377 40.661 85.3594 40.6624 84.8952V79.8252C40.6624 79.8072 40.6624 79.7892 40.661 79.774C40.6666 79.7061 40.661 79.641 40.643 79.5786ZM36.5444 78.9828L36.5402 79.2003C36.5291 79.8225 36.0996 80.2409 35.4719 80.2409C35.1657 80.2409 34.9024 80.1426 34.7126 79.9555C34.5227 79.7684 34.4188 79.5079 34.4133 79.2003L34.4091 78.9828H31.5575L32.6591 76.3044H38.1905L39.3225 78.9828H36.5444ZM31.3483 80.0469H33.5279C33.8646 80.8381 34.5809 81.3051 35.4733 81.3051C35.9402 81.3051 36.3739 81.1748 36.7245 80.9282C37.0321 80.712 37.2718 80.41 37.427 80.0469H39.5955V84.6735H31.3483V80.0469Z" fill="black" fill-opacity="0.88"/>
<path d="M53.7464 81.6673H54.9467L55.953 82.9888L56.2076 83.3404L57.711 85.3409H56.5107L55.5286 84.0193L55.274 83.6799L53.7464 81.6673ZM54.104 84.6134C53.3362 84.6134 52.6511 84.4255 52.049 84.0497C51.4468 83.6738 50.972 83.1403 50.6244 82.4493C50.2809 81.7541 50.1091 80.9317 50.1091 79.982C50.1091 79.0282 50.2809 78.2038 50.6244 77.5087C50.972 76.8136 51.4468 76.2781 52.049 75.9022C52.6511 75.5264 53.3362 75.3384 54.104 75.3384C54.8759 75.3384 55.5609 75.5264 56.1591 75.9022C56.7572 76.2781 57.228 76.8136 57.5715 77.5087C57.9151 78.2038 58.0868 79.0282 58.0868 79.982C58.0868 80.9317 57.9151 81.7541 57.5715 82.4493C57.228 83.1403 56.7572 83.6738 56.1591 84.0497C55.5609 84.4255 54.8759 84.6134 54.104 84.6134ZM54.104 83.595C54.6496 83.595 55.1427 83.4576 55.5832 83.1828C56.0277 82.9039 56.3793 82.4957 56.638 81.9582C56.9007 81.4207 57.032 80.762 57.032 79.982C57.032 79.198 56.9007 78.5372 56.638 77.9997C56.3793 77.4582 56.0277 77.05 55.5832 76.7752C55.1427 76.4963 54.6496 76.3569 54.104 76.3569C53.5584 76.3569 53.0634 76.4963 52.6188 76.7752C52.1743 77.05 51.8206 77.4582 51.558 77.9997C51.2953 78.5372 51.1639 79.198 51.1639 79.982C51.1639 80.762 51.2953 81.4207 51.558 81.9582C51.8206 82.4957 52.1743 82.9039 52.6188 83.1828C53.0634 83.4576 53.5584 83.595 54.104 83.595ZM63.4699 81.7279V77.7148H64.5005V84.4922H63.4699V83.3404H63.3972C63.2355 83.6839 62.987 83.9769 62.6516 84.2194C62.3202 84.4619 61.8978 84.5811 61.3846 84.5771C60.9602 84.5771 60.5844 84.4861 60.257 84.3043C59.9297 84.1184 59.671 83.8355 59.4811 83.4556C59.2952 83.0757 59.2022 82.5968 59.2022 82.0189V77.7148H60.2328V81.9582C60.2328 82.4472 60.3722 82.8393 60.6511 83.1343C60.934 83.4293 61.2916 83.5748 61.7241 83.5708C61.9827 83.5708 62.2454 83.5061 62.5121 83.3768C62.7829 83.2434 63.0092 83.0413 63.1911 82.7706C63.377 82.4957 63.4699 82.1482 63.4699 81.7279ZM67.8225 84.6498C67.3941 84.6498 67.0041 84.569 66.6525 84.4073C66.3009 84.2416 66.0221 84.0032 65.816 83.692C65.6099 83.3808 65.5068 83.005 65.5068 82.5644C65.5068 82.1765 65.5836 81.8633 65.7372 81.6248C65.8907 81.3823 66.0948 81.1924 66.3494 81.055C66.6081 80.9135 66.891 80.8085 67.1981 80.7398C67.5093 80.6711 67.8225 80.6165 68.1377 80.5761C68.55 80.5235 68.8834 80.4831 69.138 80.4548C69.3966 80.4266 69.5846 80.3781 69.7018 80.3094C69.823 80.2406 69.8836 80.1234 69.8836 79.9578V79.9214C69.8836 79.489 69.7644 79.1535 69.526 78.9151C69.2916 78.6726 68.9339 78.5513 68.453 78.5513C67.9599 78.5513 67.5719 78.6605 67.2891 78.8787C67.0062 79.0929 66.8081 79.3233 66.695 79.5698L65.7008 79.2182C65.8786 78.806 66.115 78.4847 66.41 78.2543C66.7091 78.0239 67.0324 77.8623 67.38 77.7693C67.7316 77.6764 68.0771 77.6299 68.4166 77.6299C68.6348 77.6299 68.8854 77.6562 69.1683 77.7087C69.4512 77.7572 69.726 77.8623 69.9927 78.0239C70.2635 78.1816 70.4858 78.422 70.6596 78.7453C70.8374 79.0646 70.9263 79.493 70.9263 80.0305V84.4922H69.8836V83.5708H69.8351C69.7664 83.7162 69.6492 83.8739 69.4835 84.0436C69.3178 84.2093 69.0976 84.3528 68.8228 84.474C68.552 84.5912 68.2186 84.6498 67.8225 84.6498ZM67.9801 83.7162C68.3923 83.7162 68.7399 83.6354 69.0228 83.4738C69.3057 83.3121 69.5199 83.104 69.6654 82.8494C69.8109 82.5907 69.8836 82.322 69.8836 82.0431V81.0853C69.8392 81.1378 69.7422 81.1863 69.5926 81.2308C69.4472 81.2712 69.2774 81.3076 69.0834 81.3399C68.8935 81.3722 68.7076 81.4005 68.5257 81.4248C68.3439 81.445 68.1984 81.4611 68.0892 81.4733C67.8185 81.5096 67.5659 81.5682 67.3315 81.6491C67.0971 81.7259 66.9071 81.841 66.7616 81.9946C66.6202 82.1482 66.5495 82.3583 66.5495 82.6251C66.5495 82.9848 66.6828 83.2575 66.9496 83.4434C67.2203 83.6253 67.5639 83.7162 67.9801 83.7162ZM68.9501 76.8055H68.0892V75.8477C68.3964 75.8315 68.6126 75.7911 68.7379 75.7264C68.8672 75.6577 68.9339 75.5526 68.9379 75.4112C68.9339 75.2536 68.8389 75.1384 68.653 75.0657C68.4671 74.9889 68.2428 74.9505 67.9801 74.9505L68.0165 74.2836C68.6267 74.2836 69.0875 74.3887 69.3987 74.5989C69.7098 74.809 69.8675 75.0919 69.8715 75.4476C69.8675 75.7466 69.7705 75.9649 69.5805 76.1023C69.3906 76.2397 69.1804 76.3286 68.9501 76.369V76.8055ZM73.2905 80.4185V84.4922H72.26V77.7148H73.2541V78.7817H73.3511C73.5087 78.4341 73.7492 78.1553 74.0725 77.9451C74.3958 77.735 74.8141 77.6299 75.3274 77.6299C75.784 77.6299 76.1841 77.7229 76.5277 77.9088C76.8712 78.0947 77.1379 78.3776 77.3279 78.7575C77.5218 79.1333 77.6188 79.6102 77.6188 80.1881V84.4922H76.5883V80.2609C76.5883 79.7314 76.4489 79.3172 76.17 79.0181C75.8911 78.715 75.5113 78.5635 75.0303 78.5635C74.6989 78.5635 74.4019 78.6362 74.1392 78.7817C73.8765 78.9272 73.6684 79.1374 73.5148 79.4122C73.3653 79.687 73.2905 80.0224 73.2905 80.4185ZM82.8928 75.4597V84.4922H81.8623V75.4597H82.8928ZM84.8933 87.0261C84.7155 87.0302 84.5579 87.0181 84.4205 86.9898C84.2831 86.9615 84.1861 86.9332 84.1295 86.9049L84.3962 85.9956L84.4993 86.0198C84.8469 86.1007 85.1378 86.0825 85.3722 85.9653C85.6107 85.8521 85.8188 85.551 85.9966 85.062L86.1906 84.5286L83.693 77.7148H84.8206L86.6877 83.1222H86.7605L88.6276 77.7148H89.7551L86.8817 85.4742C86.7524 85.8258 86.5927 86.1168 86.4028 86.3472C86.2128 86.5775 85.9926 86.7473 85.742 86.8564C85.4915 86.9696 85.2086 87.0261 84.8933 87.0261ZM86.2149 76.8661L87.0636 75.2051H88.2396L87.0757 76.8661H86.2149ZM96.0112 84.6377C95.4454 84.6377 94.9463 84.4942 94.5139 84.2073C94.0814 83.9203 93.744 83.5142 93.5015 82.9888C93.259 82.4594 93.1378 81.837 93.1378 81.1217C93.1378 80.4104 93.259 79.7941 93.5015 79.2727C93.748 78.7474 94.0875 78.3432 94.5199 78.0603C94.9523 77.7734 95.4535 77.6299 96.0233 77.6299C96.4679 77.6299 96.8174 77.7027 97.072 77.8481C97.3307 77.9936 97.5287 78.1593 97.6661 78.3452C97.8035 78.5271 97.9106 78.6766 97.9874 78.7938H98.0723V75.4597H99.1028V84.4922H98.1087V83.4495H97.9874C97.9106 83.5708 97.8015 83.7263 97.6601 83.9163C97.5186 84.1022 97.3166 84.2699 97.0539 84.4194C96.7952 84.5649 96.4477 84.6377 96.0112 84.6377ZM96.1446 83.7041C96.5649 83.7041 96.9185 83.595 97.2054 83.3768C97.4924 83.1545 97.7106 82.8494 97.8601 82.4614C98.0097 82.0694 98.0844 81.6188 98.0844 81.1095C98.0844 80.6003 98.0117 80.1558 97.8662 79.7759C97.7207 79.392 97.5025 79.0949 97.2115 78.8848C96.9245 78.6706 96.5689 78.5635 96.1446 78.5635C95.7081 78.5635 95.3444 78.6766 95.0534 78.903C94.7624 79.1293 94.5442 79.4344 94.3987 79.8183C94.2532 80.2023 94.1804 80.6327 94.1804 81.1095C94.1804 81.5905 94.2532 82.0269 94.3987 82.419C94.5482 82.811 94.7685 83.1242 95.0594 83.3586C95.3504 83.5889 95.7121 83.7041 96.1446 83.7041ZM96.193 77.1449V76.3326H100.073V77.1449H96.193ZM105.244 79.4607L104.898 78.7211C105.274 78.7211 105.549 78.5998 105.723 78.3574C105.9 78.1108 105.989 77.7269 105.989 77.2056H106.959C106.959 77.9451 106.8 78.4887 106.48 78.8363C106.161 79.1838 105.749 79.392 105.244 79.4607ZM103.177 84.6377C102.566 84.6377 102.031 84.4922 101.57 84.2012C101.109 83.9102 100.75 83.502 100.491 82.9767C100.236 82.4513 100.109 81.841 100.109 81.1459C100.109 80.4387 100.236 79.8224 100.491 79.297C100.75 78.7676 101.109 78.3574 101.57 78.0664C102.031 77.7754 102.566 77.6299 103.177 77.6299C103.791 77.6299 104.328 77.7754 104.789 78.0664C105.25 78.3574 105.609 78.7676 105.868 79.297C106.127 79.8224 106.256 80.4387 106.256 81.1459C106.256 81.841 106.127 82.4513 105.868 82.9767C105.609 83.502 105.25 83.9102 104.789 84.2012C104.328 84.4922 103.791 84.6377 103.177 84.6377ZM103.177 83.7041C103.645 83.7041 104.029 83.5849 104.328 83.3465C104.627 83.108 104.85 82.7948 104.995 82.4068C105.141 82.0148 105.213 81.5945 105.213 81.1459C105.213 80.6892 105.141 80.2649 104.995 79.8729C104.85 79.4809 104.627 79.1656 104.328 78.9272C104.029 78.6847 103.645 78.5635 103.177 78.5635C102.716 78.5635 102.336 78.6847 102.037 78.9272C101.738 79.1656 101.516 79.4809 101.37 79.8729C101.225 80.2649 101.152 80.6892 101.152 81.1459C101.152 81.5945 101.225 82.0148 101.37 82.4068C101.516 82.7948 101.738 83.108 102.037 83.3465C102.336 83.5849 102.716 83.7041 103.177 83.7041ZM108.293 80.4185V84.4922H107.262V77.7148H108.257V78.7817H108.354C108.511 78.4341 108.752 78.1553 109.075 77.9451C109.398 77.735 109.817 77.6299 110.33 77.6299C110.786 77.6299 111.187 77.7229 111.53 77.9088C111.874 78.0947 112.14 78.3776 112.33 78.7575C112.524 79.1333 112.621 79.6102 112.621 80.1881V84.4922H111.591V80.2609C111.591 79.7314 111.451 79.3172 111.172 79.0181C110.894 78.715 110.514 78.5635 110.033 78.5635C109.701 78.5635 109.404 78.6362 109.142 78.7817C108.879 78.9272 108.671 79.1374 108.517 79.4122C108.368 79.687 108.293 80.0224 108.293 80.4185ZM117.895 80.4185V84.4922H116.865V75.4597H117.895V78.7817H117.992C118.15 78.4301 118.386 78.1513 118.702 77.9451C119.021 77.735 119.447 77.6299 119.981 77.6299C120.441 77.6299 120.846 77.7229 121.193 77.9088C121.541 78.0906 121.811 78.3715 122.005 78.7514C122.199 79.1272 122.296 79.6062 122.296 80.1881V84.4922H121.254V80.2609C121.254 79.7193 121.114 79.301 120.835 79.006C120.557 78.711 120.171 78.5635 119.678 78.5635C119.334 78.5635 119.029 78.6362 118.762 78.7817C118.495 78.9272 118.283 79.1374 118.126 79.4122C117.972 79.687 117.895 80.0224 117.895 80.4185ZM125.618 84.6498C125.19 84.6498 124.8 84.569 124.448 84.4073C124.097 84.2416 123.818 84.0032 123.612 83.692C123.406 83.3808 123.303 83.005 123.303 82.5644C123.303 82.1765 123.379 81.8633 123.533 81.6248C123.687 81.3823 123.891 81.1924 124.145 81.055C124.404 80.9135 124.687 80.8085 124.994 80.7398C125.305 80.6711 125.618 80.6165 125.934 80.5761C126.346 80.5235 126.679 80.4831 126.934 80.4548C127.192 80.4266 127.38 80.3781 127.498 80.3094C127.619 80.2406 127.679 80.1234 127.679 79.9578V79.9214C127.679 79.489 127.56 79.1535 127.322 78.9151C127.087 78.6726 126.73 78.5513 126.249 78.5513C125.756 78.5513 125.368 78.6605 125.085 78.8787C124.802 79.0929 124.604 79.3233 124.491 79.5698L123.497 79.2182C123.674 78.806 123.911 78.4847 124.206 78.2543C124.505 78.0239 124.828 77.8623 125.176 77.7693C125.527 77.6764 125.873 77.6299 126.212 77.6299C126.431 77.6299 126.681 77.6562 126.964 77.7087C127.247 77.7572 127.522 77.8623 127.789 78.0239C128.059 78.1816 128.282 78.422 128.455 78.7453C128.633 79.0646 128.722 79.493 128.722 80.0305V84.4922H127.679V83.5708H127.631C127.562 83.7162 127.445 83.8739 127.279 84.0436C127.114 84.2093 126.893 84.3528 126.619 84.474C126.348 84.5912 126.014 84.6498 125.618 84.6498ZM125.776 83.7162C126.188 83.7162 126.536 83.6354 126.819 83.4738C127.102 83.3121 127.316 83.104 127.461 82.8494C127.607 82.5907 127.679 82.322 127.679 82.0431V81.0853C127.635 81.1378 127.538 81.1863 127.389 81.2308C127.243 81.2712 127.073 81.3076 126.879 81.3399C126.689 81.3722 126.503 81.4005 126.322 81.4248C126.14 81.445 125.994 81.4611 125.885 81.4733C125.614 81.5096 125.362 81.5682 125.127 81.6491C124.893 81.7259 124.703 81.841 124.558 81.9946C124.416 82.1482 124.345 82.3583 124.345 82.6251C124.345 82.9848 124.479 83.2575 124.745 83.4434C125.016 83.6253 125.36 83.7162 125.776 83.7162ZM125.934 76.8661L124.77 75.2051H125.946L126.794 76.8661H125.934ZM131.086 80.4185V84.4922H130.056V77.7148H131.05V78.7817H131.147C131.305 78.4341 131.545 78.1553 131.868 77.9451C132.192 77.735 132.61 77.6299 133.123 77.6299C133.58 77.6299 133.98 77.7229 134.324 77.9088C134.667 78.0947 134.934 78.3776 135.124 78.7575C135.318 79.1333 135.415 79.6102 135.415 80.1881V84.4922H134.384V80.2609C134.384 79.7314 134.245 79.3172 133.966 79.0181C133.687 78.715 133.307 78.5635 132.826 78.5635C132.495 78.5635 132.198 78.6362 131.935 78.7817C131.672 78.9272 131.464 79.1374 131.311 79.4122C131.161 79.687 131.086 80.0224 131.086 80.4185ZM139.476 87.1716C138.721 87.1716 138.122 87.0342 137.682 86.7594C137.245 86.4846 136.922 86.1694 136.712 85.8137L137.536 85.2318C137.629 85.357 137.749 85.4985 137.894 85.6561C138.04 85.8178 138.238 85.9572 138.488 86.0744C138.739 86.1916 139.068 86.2502 139.476 86.2502C140.022 86.2502 140.472 86.1188 140.828 85.8562C141.188 85.5935 141.368 85.1792 141.368 84.6134V83.2434H141.271C141.198 83.3646 141.091 83.5162 140.949 83.6981C140.812 83.8759 140.612 84.0355 140.349 84.177C140.091 84.3144 139.739 84.3831 139.294 84.3831C138.749 84.3831 138.26 84.2537 137.827 83.9951C137.395 83.7364 137.051 83.3606 136.797 82.8676C136.546 82.3745 136.421 81.7764 136.421 81.0732C136.421 80.3781 136.542 79.7739 136.785 79.2606C137.031 78.7433 137.373 78.3432 137.809 78.0603C138.246 77.7734 138.749 77.6299 139.319 77.6299C139.759 77.6299 140.109 77.7027 140.367 77.8481C140.63 77.9936 140.83 78.1593 140.968 78.3452C141.109 78.5271 141.218 78.6766 141.295 78.7938H141.404V77.7148H142.398V84.6862C142.398 85.2681 142.267 85.741 142.004 86.1047C141.746 86.4725 141.394 86.7412 140.949 86.911C140.509 87.0847 140.018 87.1716 139.476 87.1716ZM139.44 83.4495C140.066 83.4495 140.545 83.2373 140.877 82.813C141.212 82.3886 141.38 81.8006 141.38 81.0489C141.38 80.5599 141.307 80.1295 141.162 79.7577C141.016 79.3859 140.798 79.0949 140.507 78.8848C140.22 78.6706 139.864 78.5635 139.44 78.5635C138.999 78.5635 138.632 78.6766 138.337 78.903C138.046 79.1252 137.827 79.4243 137.682 79.8001C137.536 80.176 137.464 80.5922 137.464 81.0489C137.464 81.5177 137.536 81.934 137.682 82.2977C137.831 82.6574 138.054 82.9403 138.349 83.1464C138.644 83.3485 139.007 83.4495 139.44 83.4495Z" fill="black" fill-opacity="0.88"/>
<path d="M7.09436 110.056C7.09436 106.462 10.0079 103.549 13.602 103.549H170.398C173.992 103.549 176.906 106.462 176.906 110.056V132.513C176.906 136.107 173.992 139.021 170.398 139.021H13.602C10.0079 139.021 7.09436 136.107 7.09436 132.513V110.056Z" fill="white"/>
<g clip-path="url(#clip0_2_57008)">
<path d="M41.2991 114.951H29.6441C29.3638 114.951 29.1373 115.178 29.1373 115.458V127.113C29.1373 127.393 29.3638 127.62 29.6441 127.62H41.2991C41.5794 127.62 41.8058 127.393 41.8058 127.113V115.458C41.8058 115.178 41.5794 114.951 41.2991 114.951ZM40.6657 122.299H35.725V120.272H40.6657V122.299ZM40.6657 126.48H30.2775V116.091H40.6657V119.258H35.2182C34.9379 119.258 34.7115 119.485 34.7115 119.765V122.806C34.7115 123.086 34.9379 123.312 35.2182 123.312H40.6657V126.48ZM36.5484 121.285C36.5484 121.453 36.6151 121.615 36.7339 121.733C36.8527 121.852 37.0138 121.919 37.1818 121.919C37.3498 121.919 37.5109 121.852 37.6297 121.733C37.7485 121.615 37.8153 121.453 37.8153 121.285C37.8153 121.117 37.7485 120.956 37.6297 120.838C37.5109 120.719 37.3498 120.652 37.1818 120.652C37.0138 120.652 36.8527 120.719 36.7339 120.838C36.6151 120.956 36.5484 121.117 36.5484 121.285Z" fill="black" fill-opacity="0.88"/>
</g>
<path d="M53.7464 122.46H54.9467L55.953 123.782L56.2076 124.133L57.711 126.134H56.5107L55.5286 124.812L55.274 124.473L53.7464 122.46ZM54.104 125.406C53.3362 125.406 52.6511 125.218 52.049 124.843C51.4468 124.467 50.972 123.933 50.6244 123.242C50.2809 122.547 50.1091 121.725 50.1091 120.775C50.1091 119.821 50.2809 118.997 50.6244 118.302C50.972 117.607 51.4468 117.071 52.049 116.695C52.6511 116.319 53.3362 116.131 54.104 116.131C54.8759 116.131 55.5609 116.319 56.1591 116.695C56.7572 117.071 57.228 117.607 57.5715 118.302C57.9151 118.997 58.0868 119.821 58.0868 120.775C58.0868 121.725 57.9151 122.547 57.5715 123.242C57.228 123.933 56.7572 124.467 56.1591 124.843C55.5609 125.218 54.8759 125.406 54.104 125.406ZM54.104 124.388C54.6496 124.388 55.1427 124.251 55.5832 123.976C56.0277 123.697 56.3793 123.289 56.638 122.751C56.9007 122.214 57.032 121.555 57.032 120.775C57.032 119.991 56.9007 119.33 56.638 118.793C56.3793 118.251 56.0277 117.843 55.5832 117.568C55.1427 117.289 54.6496 117.15 54.104 117.15C53.5584 117.15 53.0634 117.289 52.6188 117.568C52.1743 117.843 51.8206 118.251 51.558 118.793C51.2953 119.33 51.1639 119.991 51.1639 120.775C51.1639 121.555 51.2953 122.214 51.558 122.751C51.8206 123.289 52.1743 123.697 52.6188 123.976C53.0634 124.251 53.5584 124.388 54.104 124.388ZM63.4699 122.521V118.508H64.5005V125.285H63.4699V124.133H63.3972C63.2355 124.477 62.987 124.77 62.6516 125.012C62.3202 125.255 61.8978 125.374 61.3846 125.37C60.9602 125.37 60.5844 125.279 60.257 125.097C59.9297 124.911 59.671 124.628 59.4811 124.249C59.2952 123.869 59.2022 123.39 59.2022 122.812V118.508H60.2328V122.751C60.2328 123.24 60.3722 123.632 60.6511 123.927C60.934 124.222 61.2916 124.368 61.7241 124.364C61.9827 124.364 62.2454 124.299 62.5121 124.17C62.7829 124.036 63.0092 123.834 63.1911 123.564C63.377 123.289 63.4699 122.941 63.4699 122.521ZM67.8225 125.443C67.3941 125.443 67.0041 125.362 66.6525 125.2C66.3009 125.035 66.0221 124.796 65.816 124.485C65.6099 124.174 65.5068 123.798 65.5068 123.357C65.5068 122.969 65.5836 122.656 65.7372 122.418C65.8907 122.175 66.0948 121.985 66.3494 121.848C66.6081 121.707 66.891 121.601 67.1981 121.533C67.5093 121.464 67.8225 121.409 68.1377 121.369C68.55 121.317 68.8834 121.276 69.138 121.248C69.3966 121.22 69.5846 121.171 69.7018 121.102C69.823 121.034 69.8836 120.916 69.8836 120.751V120.714C69.8836 120.282 69.7644 119.946 69.526 119.708C69.2916 119.466 68.9339 119.344 68.453 119.344C67.9599 119.344 67.5719 119.453 67.2891 119.672C67.0062 119.886 66.8081 120.116 66.695 120.363L65.7008 120.011C65.8786 119.599 66.115 119.278 66.41 119.047C66.7091 118.817 67.0324 118.655 67.38 118.562C67.7316 118.469 68.0771 118.423 68.4166 118.423C68.6348 118.423 68.8854 118.449 69.1683 118.502C69.4512 118.55 69.726 118.655 69.9927 118.817C70.2635 118.975 70.4858 119.215 70.6596 119.538C70.8374 119.858 70.9263 120.286 70.9263 120.823V125.285H69.8836V124.364H69.8351C69.7664 124.509 69.6492 124.667 69.4835 124.837C69.3178 125.002 69.0976 125.146 68.8228 125.267C68.552 125.384 68.2186 125.443 67.8225 125.443ZM67.9801 124.509C68.3923 124.509 68.7399 124.428 69.0228 124.267C69.3057 124.105 69.5199 123.897 69.6654 123.642C69.8109 123.384 69.8836 123.115 69.8836 122.836V121.878C69.8392 121.931 69.7422 121.979 69.5926 122.024C69.4472 122.064 69.2774 122.101 69.0834 122.133C68.8935 122.165 68.7076 122.193 68.5257 122.218C68.3439 122.238 68.1984 122.254 68.0892 122.266C67.8185 122.303 67.5659 122.361 67.3315 122.442C67.0971 122.519 66.9071 122.634 66.7616 122.788C66.6202 122.941 66.5495 123.151 66.5495 123.418C66.5495 123.778 66.6828 124.051 66.9496 124.236C67.2203 124.418 67.5639 124.509 67.9801 124.509ZM68.9501 117.598H68.0892V116.641C68.3964 116.624 68.6126 116.584 68.7379 116.519C68.8672 116.451 68.9339 116.346 68.9379 116.204C68.9339 116.047 68.8389 115.931 68.653 115.859C68.4671 115.782 68.2428 115.743 67.9801 115.743L68.0165 115.077C68.6267 115.077 69.0875 115.182 69.3987 115.392C69.7098 115.602 69.8675 115.885 69.8715 116.241C69.8675 116.54 69.7705 116.758 69.5805 116.895C69.3906 117.033 69.1804 117.122 68.9501 117.162V117.598ZM73.2905 121.211V125.285H72.26V118.508H73.2541V119.575H73.3511C73.5087 119.227 73.7492 118.948 74.0725 118.738C74.3958 118.528 74.8141 118.423 75.3274 118.423C75.784 118.423 76.1841 118.516 76.5277 118.702C76.8712 118.888 77.1379 119.171 77.3279 119.55C77.5218 119.926 77.6188 120.403 77.6188 120.981V125.285H76.5883V121.054C76.5883 120.524 76.4489 120.11 76.17 119.811C75.8911 119.508 75.5113 119.356 75.0303 119.356C74.6989 119.356 74.4019 119.429 74.1392 119.575C73.8765 119.72 73.6684 119.93 73.5148 120.205C73.3653 120.48 73.2905 120.815 73.2905 121.211ZM82.8928 116.253V125.285H81.8623V116.253H82.8928ZM84.8933 127.819C84.7155 127.823 84.5579 127.811 84.4205 127.783C84.2831 127.754 84.1861 127.726 84.1295 127.698L84.3962 126.789L84.4993 126.813C84.8469 126.894 85.1378 126.875 85.3722 126.758C85.6107 126.645 85.8188 126.344 85.9966 125.855L86.1906 125.322L83.693 118.508H84.8206L86.6877 123.915H86.7605L88.6276 118.508H89.7551L86.8817 126.267C86.7524 126.619 86.5927 126.91 86.4028 127.14C86.2128 127.371 85.9926 127.54 85.742 127.649C85.4915 127.763 85.2086 127.819 84.8933 127.819ZM86.2149 117.659L87.0636 115.998H88.2396L87.0757 117.659H86.2149ZM96.193 127.965C95.4373 127.965 94.8392 127.827 94.3987 127.552C93.9622 127.278 93.6389 126.962 93.4287 126.607L94.2532 126.025C94.3461 126.15 94.4654 126.291 94.6108 126.449C94.7563 126.611 94.9544 126.75 95.2049 126.867C95.4555 126.985 95.7849 127.043 96.193 127.043C96.7386 127.043 97.1892 126.912 97.5449 126.649C97.9046 126.386 98.0844 125.972 98.0844 125.406V124.036H97.9874C97.9147 124.158 97.8076 124.309 97.6661 124.491C97.5287 124.669 97.3287 124.828 97.066 124.97C96.8073 125.107 96.4557 125.176 96.0112 125.176C95.4656 125.176 94.9766 125.047 94.5442 124.788C94.1117 124.529 93.7682 124.154 93.5136 123.661C93.263 123.167 93.1378 122.569 93.1378 121.866C93.1378 121.171 93.259 120.567 93.5015 120.054C93.748 119.536 94.0895 119.136 94.526 118.853C94.9624 118.566 95.4656 118.423 96.0354 118.423C96.4759 118.423 96.8255 118.496 97.0842 118.641C97.3469 118.787 97.5469 118.952 97.6843 119.138C97.8258 119.32 97.9349 119.47 98.0117 119.587H98.1208V118.508H99.115V125.479C99.115 126.061 98.9836 126.534 98.7209 126.898C98.4623 127.265 98.1107 127.534 97.6661 127.704C97.2256 127.878 96.7346 127.965 96.193 127.965ZM96.1567 124.242C96.7831 124.242 97.262 124.03 97.5934 123.606C97.9288 123.182 98.0965 122.594 98.0965 121.842C98.0965 121.353 98.0238 120.922 97.8783 120.551C97.7328 120.179 97.5146 119.888 97.2236 119.678C96.9367 119.464 96.581 119.356 96.1567 119.356C95.7162 119.356 95.3484 119.47 95.0534 119.696C94.7624 119.918 94.5442 120.217 94.3987 120.593C94.2532 120.969 94.1804 121.385 94.1804 121.842C94.1804 122.311 94.2532 122.727 94.3987 123.091C94.5482 123.45 94.7705 123.733 95.0655 123.939C95.3605 124.141 95.7242 124.242 96.1567 124.242ZM100.449 125.285V118.508H101.479V125.285H100.449ZM100.97 117.38C100.768 117.38 100.594 117.312 100.449 117.174C100.303 117.037 100.23 116.871 100.23 116.677C100.23 116.483 100.303 116.317 100.449 116.18C100.594 116.043 100.768 115.974 100.97 115.974C101.172 115.974 101.346 116.043 101.491 116.18C101.637 116.317 101.71 116.483 101.71 116.677C101.71 116.871 101.637 117.037 101.491 117.174C101.346 117.312 101.172 117.38 100.97 117.38ZM104.801 125.443C104.373 125.443 103.983 125.362 103.631 125.2C103.28 125.035 103.001 124.796 102.795 124.485C102.589 124.174 102.485 123.798 102.485 123.357C102.485 122.969 102.562 122.656 102.716 122.418C102.869 122.175 103.074 121.985 103.328 121.848C103.587 121.707 103.87 121.601 104.177 121.533C104.488 121.464 104.801 121.409 105.116 121.369C105.529 121.317 105.862 121.276 106.117 121.248C106.375 121.22 106.563 121.171 106.68 121.102C106.802 121.034 106.862 120.916 106.862 120.751V120.714C106.862 120.282 106.743 119.946 106.505 119.708C106.27 119.466 105.913 119.344 105.432 119.344C104.939 119.344 104.551 119.453 104.268 119.672C103.985 119.886 103.787 120.116 103.674 120.363L102.679 120.011C102.857 119.599 103.094 119.278 103.389 119.047C103.688 118.817 104.011 118.655 104.359 118.562C104.71 118.469 105.056 118.423 105.395 118.423C105.614 118.423 105.864 118.449 106.147 118.502C106.43 118.55 106.705 118.655 106.971 118.817C107.242 118.975 107.464 119.215 107.638 119.538C107.816 119.858 107.905 120.286 107.905 120.823V125.285H106.862V124.364H106.814C106.745 124.509 106.628 124.667 106.462 124.837C106.297 125.002 106.076 125.146 105.801 125.267C105.531 125.384 105.197 125.443 104.801 125.443ZM104.959 124.509C105.371 124.509 105.719 124.428 106.001 124.267C106.284 124.105 106.499 123.897 106.644 123.642C106.79 123.384 106.862 123.115 106.862 122.836V121.878C106.818 121.931 106.721 121.979 106.571 122.024C106.426 122.064 106.256 122.101 106.062 122.133C105.872 122.165 105.686 122.193 105.504 122.218C105.323 122.238 105.177 122.254 105.068 122.266C104.797 122.303 104.545 122.361 104.31 122.442C104.076 122.519 103.886 122.634 103.74 122.788C103.599 122.941 103.528 123.151 103.528 123.418C103.528 123.778 103.662 124.051 103.928 124.236C104.199 124.418 104.543 124.509 104.959 124.509ZM111.979 125.431C111.368 125.431 110.833 125.285 110.372 124.994C109.912 124.703 109.552 124.295 109.293 123.77C109.039 123.244 108.911 122.634 108.911 121.939C108.911 121.232 109.039 120.615 109.293 120.09C109.552 119.561 109.912 119.15 110.372 118.859C110.833 118.568 111.368 118.423 111.979 118.423C112.593 118.423 113.13 118.568 113.591 118.859C114.052 119.15 114.412 119.561 114.67 120.09C114.929 120.615 115.058 121.232 115.058 121.939C115.058 122.634 114.929 123.244 114.67 123.77C114.412 124.295 114.052 124.703 113.591 124.994C113.13 125.285 112.593 125.431 111.979 125.431ZM111.979 124.497C112.448 124.497 112.831 124.378 113.13 124.139C113.43 123.901 113.652 123.588 113.797 123.2C113.943 122.808 114.016 122.387 114.016 121.939C114.016 121.482 113.943 121.058 113.797 120.666C113.652 120.274 113.43 119.959 113.13 119.72C112.831 119.478 112.448 119.356 111.979 119.356C111.518 119.356 111.138 119.478 110.839 119.72C110.54 119.959 110.318 120.274 110.172 120.666C110.027 121.058 109.954 121.482 109.954 121.939C109.954 122.387 110.027 122.808 110.172 123.2C110.318 123.588 110.54 123.901 110.839 124.139C111.138 124.378 111.518 124.497 111.979 124.497ZM121.52 125.431C120.955 125.431 120.456 125.287 120.023 125C119.591 124.713 119.253 124.307 119.011 123.782C118.768 123.252 118.647 122.63 118.647 121.915C118.647 121.203 118.768 120.587 119.011 120.066C119.257 119.54 119.597 119.136 120.029 118.853C120.462 118.566 120.963 118.423 121.533 118.423C121.977 118.423 122.327 118.496 122.581 118.641C122.84 118.787 123.038 118.952 123.175 119.138C123.313 119.32 123.42 119.47 123.497 119.587H123.582V116.253H124.612V125.285H123.618V124.242H123.497C123.42 124.364 123.311 124.519 123.169 124.709C123.028 124.895 122.826 125.063 122.563 125.212C122.304 125.358 121.957 125.431 121.52 125.431ZM121.654 124.497C122.074 124.497 122.428 124.388 122.715 124.17C123.002 123.947 123.22 123.642 123.369 123.254C123.519 122.862 123.594 122.412 123.594 121.903C123.594 121.393 123.521 120.949 123.375 120.569C123.23 120.185 123.012 119.888 122.721 119.678C122.434 119.464 122.078 119.356 121.654 119.356C121.217 119.356 120.854 119.47 120.563 119.696C120.272 119.922 120.053 120.227 119.908 120.611C119.762 120.995 119.69 121.426 119.69 121.903C119.69 122.383 119.762 122.82 119.908 123.212C120.057 123.604 120.278 123.917 120.569 124.152C120.86 124.382 121.221 124.497 121.654 124.497ZM125.946 125.285V118.508H126.976V125.285H125.946ZM126.467 117.38C126.265 117.38 126.091 117.312 125.946 117.174C125.8 117.037 125.727 116.871 125.727 116.677C125.727 116.483 125.8 116.317 125.946 116.18C126.091 116.043 126.265 115.974 126.467 115.974C126.669 115.974 126.843 116.043 126.988 116.18C127.134 116.317 127.207 116.483 127.207 116.677C127.207 116.871 127.134 117.037 126.988 117.174C126.843 117.312 126.669 117.38 126.467 117.38ZM126.467 127.516C126.265 127.516 126.091 127.447 125.946 127.31C125.8 127.172 125.727 127.007 125.727 126.813C125.727 126.619 125.8 126.453 125.946 126.316C126.091 126.178 126.265 126.11 126.467 126.11C126.669 126.11 126.843 126.178 126.988 126.316C127.134 126.453 127.207 126.619 127.207 126.813C127.207 127.007 127.134 127.172 126.988 127.31C126.843 127.447 126.669 127.516 126.467 127.516ZM131.05 125.431C130.42 125.431 129.874 125.281 129.413 124.982C128.957 124.679 128.603 124.265 128.352 123.739C128.106 123.214 127.983 122.614 127.983 121.939C127.983 121.248 128.11 120.64 128.364 120.114C128.619 119.585 128.975 119.171 129.431 118.871C129.892 118.572 130.428 118.423 131.038 118.423C131.515 118.423 131.943 118.512 132.323 118.69C132.707 118.863 133.02 119.11 133.263 119.429C133.509 119.748 133.661 120.12 133.717 120.545H132.675C132.622 120.338 132.527 120.145 132.39 119.963C132.252 119.781 132.07 119.635 131.844 119.526C131.622 119.413 131.357 119.356 131.05 119.356C130.646 119.356 130.292 119.462 129.989 119.672C129.686 119.882 129.45 120.179 129.28 120.563C129.11 120.943 129.025 121.389 129.025 121.903C129.025 122.424 129.108 122.881 129.274 123.273C129.44 123.661 129.674 123.962 129.977 124.176C130.284 124.39 130.642 124.497 131.05 124.497C131.458 124.497 131.808 124.392 132.099 124.182C132.39 123.968 132.582 123.677 132.675 123.309H133.717C133.661 123.709 133.515 124.069 133.281 124.388C133.05 124.707 132.745 124.962 132.365 125.152C131.99 125.338 131.551 125.431 131.05 125.431ZM135.73 121.211V125.285H134.699V116.253H135.73V119.575H135.827C135.985 119.223 136.221 118.944 136.536 118.738C136.855 118.528 137.282 118.423 137.815 118.423C138.276 118.423 138.68 118.516 139.028 118.702C139.375 118.884 139.646 119.164 139.84 119.544C140.034 119.92 140.131 120.399 140.131 120.981V125.285H139.088V121.054C139.088 120.512 138.949 120.094 138.67 119.799C138.391 119.504 138.005 119.356 137.512 119.356C137.169 119.356 136.864 119.429 136.597 119.575C136.33 119.72 136.118 119.93 135.96 120.205C135.807 120.48 135.73 120.815 135.73 121.211Z" fill="black" fill-opacity="0.88"/>
<path d="M7.09436 150.849C7.09436 147.255 10.0079 144.342 13.602 144.342H170.398C173.992 144.342 176.906 147.255 176.906 150.849V173.306C176.906 176.9 173.992 179.814 170.398 179.814H13.602C10.0079 179.814 7.09436 176.9 7.09436 173.306V150.849Z" fill="white"/>
<g clip-path="url(#clip1_2_57008)">
<path d="M42.0086 163.88L40.9713 162.993C41.0204 162.692 41.0458 162.385 41.0458 162.078C41.0458 161.77 41.0204 161.463 40.9713 161.162L42.0086 160.275C42.0868 160.209 42.1428 160.119 42.1691 160.02C42.1954 159.92 42.1908 159.815 42.1559 159.718L42.1416 159.677C41.856 158.879 41.4285 158.139 40.8795 157.493L40.851 157.46C40.7844 157.382 40.6956 157.325 40.5964 157.298C40.4972 157.272 40.3922 157.275 40.2952 157.309L39.0077 157.767C38.5327 157.378 38.0022 157.07 37.4289 156.855L37.1803 155.509C37.1615 155.408 37.1124 155.314 37.0394 155.242C36.9665 155.169 36.8731 155.12 36.7717 155.102L36.729 155.094C35.9039 154.945 35.0361 154.945 34.2111 155.094L34.1684 155.102C34.067 155.12 33.9736 155.169 33.9007 155.242C33.8277 155.314 33.7786 155.408 33.7598 155.509L33.5096 156.861C32.9409 157.077 32.4113 157.384 31.9419 157.77L30.6449 157.309C30.548 157.275 30.4429 157.271 30.3436 157.298C30.2443 157.325 30.1555 157.381 30.0891 157.46L30.0606 157.493C29.5123 158.139 29.0848 158.879 28.7985 159.677L28.7842 159.718C28.713 159.916 28.7716 160.138 28.9315 160.275L29.9814 161.172C29.9323 161.469 29.9086 161.774 29.9086 162.076C29.9086 162.38 29.9323 162.684 29.9814 162.98L28.9315 163.877C28.8533 163.943 28.7973 164.033 28.771 164.132C28.7447 164.232 28.7493 164.337 28.7842 164.434L28.7985 164.475C29.0851 165.273 29.5095 166.01 30.0606 166.659L30.0891 166.692C30.1557 166.77 30.2445 166.827 30.3437 166.854C30.4429 166.88 30.5479 166.877 30.6449 166.843L31.9419 166.382C32.4138 166.77 32.9411 167.077 33.5096 167.291L33.7598 168.643C33.7786 168.744 33.8277 168.837 33.9007 168.91C33.9736 168.983 34.067 169.032 34.1684 169.05L34.2111 169.058C35.0437 169.208 35.8964 169.208 36.729 169.058L36.7717 169.05C36.8731 169.032 36.9665 168.983 37.0394 168.91C37.1124 168.837 37.1615 168.744 37.1803 168.643L37.4289 167.297C38.0019 167.082 38.5354 166.774 39.0077 166.385L40.2952 166.843C40.3921 166.877 40.4972 166.881 40.5965 166.854C40.6958 166.827 40.7846 166.771 40.851 166.692L40.8795 166.659C41.4306 166.008 41.855 165.273 42.1416 164.475L42.1559 164.434C42.2271 164.239 42.1685 164.017 42.0086 163.88ZM39.847 161.349C39.8866 161.588 39.9072 161.834 39.9072 162.079C39.9072 162.325 39.8866 162.57 39.847 162.809L39.7425 163.444L40.9254 164.456C40.7461 164.869 40.5197 165.26 40.2508 165.622L38.7813 165.101L38.284 165.509C37.9056 165.82 37.4843 166.063 37.0283 166.234L36.4249 166.461L36.1415 167.997C35.6942 168.048 35.2427 168.048 34.7954 167.997L34.512 166.458L33.9134 166.228C33.4621 166.057 33.0424 165.813 32.6671 165.504L32.1699 165.094L30.6909 165.62C30.4216 165.257 30.1968 164.866 30.0163 164.455L31.2118 163.433L31.1089 162.8C31.0709 162.564 31.0503 162.32 31.0503 162.079C31.0503 161.837 31.0693 161.595 31.1089 161.359L31.2118 160.725L30.0163 159.704C30.1952 159.291 30.4216 158.901 30.6909 158.538L32.1699 159.064L32.6671 158.654C33.0424 158.345 33.4621 158.101 33.9134 157.93L34.5136 157.704L34.797 156.165C35.242 156.114 35.6965 156.114 36.1431 156.165L36.4265 157.701L37.0299 157.927C37.4843 158.098 37.9072 158.342 38.2856 158.652L38.7829 159.061L40.2524 158.54C40.5216 158.903 40.7465 159.294 40.927 159.705L39.7441 160.717L39.847 161.349ZM35.4716 159.134C33.9324 159.134 32.6846 160.382 32.6846 161.921C32.6846 163.46 33.9324 164.708 35.4716 164.708C37.0109 164.708 38.2587 163.46 38.2587 161.921C38.2587 160.382 37.0109 159.134 35.4716 159.134ZM36.7258 163.175C36.5613 163.34 36.3658 163.471 36.1506 163.56C35.9353 163.649 35.7046 163.695 35.4716 163.694C34.9981 163.694 34.5532 163.509 34.2174 163.175C34.0525 163.01 33.9217 162.815 33.8325 162.6C33.7434 162.385 33.6977 162.154 33.698 161.921C33.698 161.447 33.8833 161.002 34.2174 160.667C34.5532 160.331 34.9981 160.147 35.4716 160.147C35.9451 160.147 36.3901 160.331 36.7258 160.667C36.8908 160.831 37.0216 161.027 37.1107 161.242C37.1999 161.457 37.2456 161.688 37.2452 161.921C37.2452 162.394 37.0599 162.839 36.7258 163.175Z" fill="black" fill-opacity="0.88"/>
</g>
<path d="M53.7464 163.253H54.9467L55.953 164.575L56.2076 164.926L57.711 166.927H56.5107L55.5286 165.605L55.274 165.266L53.7464 163.253ZM54.104 166.199C53.3362 166.199 52.6511 166.011 52.049 165.636C51.4468 165.26 50.972 164.726 50.6244 164.035C50.2809 163.34 50.1091 162.518 50.1091 161.568C50.1091 160.614 50.2809 159.79 50.6244 159.095C50.972 158.399 51.4468 157.864 52.049 157.488C52.6511 157.112 53.3362 156.924 54.104 156.924C54.8759 156.924 55.5609 157.112 56.1591 157.488C56.7572 157.864 57.228 158.399 57.5715 159.095C57.9151 159.79 58.0868 160.614 58.0868 161.568C58.0868 162.518 57.9151 163.34 57.5715 164.035C57.228 164.726 56.7572 165.26 56.1591 165.636C55.5609 166.011 54.8759 166.199 54.104 166.199ZM54.104 165.181C54.6496 165.181 55.1427 165.044 55.5832 164.769C56.0277 164.49 56.3793 164.082 56.638 163.544C56.9007 163.007 57.032 162.348 57.032 161.568C57.032 160.784 56.9007 160.123 56.638 159.586C56.3793 159.044 56.0277 158.636 55.5832 158.361C55.1427 158.082 54.6496 157.943 54.104 157.943C53.5584 157.943 53.0634 158.082 52.6188 158.361C52.1743 158.636 51.8206 159.044 51.558 159.586C51.2953 160.123 51.1639 160.784 51.1639 161.568C51.1639 162.348 51.2953 163.007 51.558 163.544C51.8206 164.082 52.1743 164.49 52.6188 164.769C53.0634 165.044 53.5584 165.181 54.104 165.181ZM63.4699 163.314V159.301H64.5005V166.078H63.4699V164.926H63.3972C63.2355 165.27 62.987 165.563 62.6516 165.805C62.3202 166.048 61.8978 166.167 61.3846 166.163C60.9602 166.163 60.5844 166.072 60.257 165.89C59.9297 165.704 59.671 165.421 59.4811 165.042C59.2952 164.662 59.2022 164.183 59.2022 163.605V159.301H60.2328V163.544C60.2328 164.033 60.3722 164.425 60.6511 164.72C60.934 165.015 61.2916 165.161 61.7241 165.157C61.9827 165.157 62.2454 165.092 62.5121 164.963C62.7829 164.829 63.0092 164.627 63.1911 164.356C63.377 164.082 63.4699 163.734 63.4699 163.314ZM67.8225 166.236C67.3941 166.236 67.0041 166.155 66.6525 165.993C66.3009 165.828 66.0221 165.589 65.816 165.278C65.6099 164.967 65.5068 164.591 65.5068 164.15C65.5068 163.762 65.5836 163.449 65.7372 163.211C65.8907 162.968 66.0948 162.778 66.3494 162.641C66.6081 162.499 66.891 162.394 67.1981 162.326C67.5093 162.257 67.8225 162.202 68.1377 162.162C68.55 162.109 68.8834 162.069 69.138 162.041C69.3966 162.012 69.5846 161.964 69.7018 161.895C69.823 161.827 69.8836 161.709 69.8836 161.544V161.507C69.8836 161.075 69.7644 160.739 69.526 160.501C69.2916 160.259 68.9339 160.137 68.453 160.137C67.9599 160.137 67.5719 160.246 67.2891 160.465C67.0062 160.679 66.8081 160.909 66.695 161.156L65.7008 160.804C65.8786 160.392 66.115 160.071 66.41 159.84C66.7091 159.61 67.0324 159.448 67.38 159.355C67.7316 159.262 68.0771 159.216 68.4166 159.216C68.6348 159.216 68.8854 159.242 69.1683 159.295C69.4512 159.343 69.726 159.448 69.9927 159.61C70.2635 159.768 70.4858 160.008 70.6596 160.331C70.8374 160.651 70.9263 161.079 70.9263 161.616V166.078H69.8836V165.157H69.8351C69.7664 165.302 69.6492 165.46 69.4835 165.63C69.3178 165.795 69.0976 165.939 68.8228 166.06C68.552 166.177 68.2186 166.236 67.8225 166.236ZM67.9801 165.302C68.3923 165.302 68.7399 165.221 69.0228 165.06C69.3057 164.898 69.5199 164.69 69.6654 164.435C69.8109 164.177 69.8836 163.908 69.8836 163.629V162.671C69.8392 162.724 69.7422 162.772 69.5926 162.817C69.4472 162.857 69.2774 162.894 69.0834 162.926C68.8935 162.958 68.7076 162.986 68.5257 163.011C68.3439 163.031 68.1984 163.047 68.0892 163.059C67.8185 163.096 67.5659 163.154 67.3315 163.235C67.0971 163.312 66.9071 163.427 66.7616 163.581C66.6202 163.734 66.5495 163.944 66.5495 164.211C66.5495 164.571 66.6828 164.843 66.9496 165.029C67.2203 165.211 67.5639 165.302 67.9801 165.302ZM68.9501 158.391H68.0892V157.434C68.3964 157.417 68.6126 157.377 68.7379 157.312C68.8672 157.244 68.9339 157.139 68.9379 156.997C68.9339 156.84 68.8389 156.724 68.653 156.652C68.4671 156.575 68.2428 156.536 67.9801 156.536L68.0165 155.87C68.6267 155.87 69.0875 155.975 69.3987 156.185C69.7098 156.395 69.8675 156.678 69.8715 157.034C69.8675 157.333 69.7705 157.551 69.5805 157.688C69.3906 157.826 69.1804 157.915 68.9501 157.955V158.391ZM73.2905 162.004V166.078H72.26V159.301H73.2541V160.368H73.3511C73.5087 160.02 73.7492 159.741 74.0725 159.531C74.3958 159.321 74.8141 159.216 75.3274 159.216C75.784 159.216 76.1841 159.309 76.5277 159.495C76.8712 159.681 77.1379 159.964 77.3279 160.343C77.5218 160.719 77.6188 161.196 77.6188 161.774V166.078H76.5883V161.847C76.5883 161.317 76.4489 160.903 76.17 160.604C75.8911 160.301 75.5113 160.149 75.0303 160.149C74.6989 160.149 74.4019 160.222 74.1392 160.368C73.8765 160.513 73.6684 160.723 73.5148 160.998C73.3653 161.273 73.2905 161.608 73.2905 162.004ZM82.8928 157.046V166.078H81.8623V157.046H82.8928ZM84.8933 168.612C84.7155 168.616 84.5579 168.604 84.4205 168.576C84.2831 168.547 84.1861 168.519 84.1295 168.491L84.3962 167.582L84.4993 167.606C84.8469 167.687 85.1378 167.668 85.3722 167.551C85.6107 167.438 85.8188 167.137 85.9966 166.648L86.1906 166.114L83.693 159.301H84.8206L86.6877 164.708H86.7605L88.6276 159.301H89.7551L86.8817 167.06C86.7524 167.412 86.5927 167.703 86.4028 167.933C86.2128 168.163 85.9926 168.333 85.742 168.442C85.4915 168.555 85.2086 168.612 84.8933 168.612ZM86.2149 158.452L87.0636 156.791H88.2396L87.0757 158.452H86.2149ZM96.2052 166.224C95.5747 166.224 95.0291 166.074 94.5684 165.775C94.1117 165.472 93.7581 165.058 93.5075 164.532C93.261 164.007 93.1378 163.407 93.1378 162.732C93.1378 162.041 93.2651 161.433 93.5197 160.907C93.7743 160.378 94.1299 159.964 94.5866 159.664C95.0473 159.365 95.5828 159.216 96.193 159.216C96.6699 159.216 97.0983 159.305 97.4782 159.483C97.8621 159.656 98.1753 159.903 98.4178 160.222C98.6644 160.541 98.8159 160.913 98.8725 161.338H97.8298C97.7773 161.131 97.6823 160.937 97.5449 160.756C97.4075 160.574 97.2256 160.428 96.9993 160.319C96.777 160.206 96.5123 160.149 96.2052 160.149C95.801 160.149 95.4474 160.254 95.1443 160.465C94.8412 160.675 94.6048 160.972 94.435 161.356C94.2653 161.736 94.1804 162.182 94.1804 162.695C94.1804 163.217 94.2633 163.674 94.429 164.066C94.5947 164.453 94.8291 164.755 95.1322 164.969C95.4393 165.183 95.797 165.29 96.2052 165.29C96.6134 165.29 96.9629 165.185 97.2539 164.975C97.5449 164.761 97.7369 164.47 97.8298 164.102H98.8725C98.8159 164.502 98.6704 164.862 98.436 165.181C98.2057 165.5 97.9005 165.755 97.5206 165.945C97.1448 166.131 96.7063 166.224 96.2052 166.224ZM101.843 166.236C101.415 166.236 101.025 166.155 100.673 165.993C100.321 165.828 100.042 165.589 99.8364 165.278C99.6302 164.967 99.5272 164.591 99.5272 164.15C99.5272 163.762 99.604 163.449 99.7575 163.211C99.9111 162.968 100.115 162.778 100.37 162.641C100.628 162.499 100.911 162.394 101.219 162.326C101.53 162.257 101.843 162.202 102.158 162.162C102.57 162.109 102.904 162.069 103.158 162.041C103.417 162.012 103.605 161.964 103.722 161.895C103.843 161.827 103.904 161.709 103.904 161.544V161.507C103.904 161.075 103.785 160.739 103.546 160.501C103.312 160.259 102.954 160.137 102.473 160.137C101.98 160.137 101.592 160.246 101.309 160.465C101.027 160.679 100.829 160.909 100.715 161.156L99.7212 160.804C99.899 160.392 100.135 160.071 100.43 159.84C100.73 159.61 101.053 159.448 101.4 159.355C101.752 159.262 102.098 159.216 102.437 159.216C102.655 159.216 102.906 159.242 103.189 159.295C103.472 159.343 103.746 159.448 104.013 159.61C104.284 159.768 104.506 160.008 104.68 160.331C104.858 160.651 104.947 161.079 104.947 161.616V166.078H103.904V165.157H103.856C103.787 165.302 103.67 165.46 103.504 165.63C103.338 165.795 103.118 165.939 102.843 166.06C102.572 166.177 102.239 166.236 101.843 166.236ZM102.001 165.302C102.413 165.302 102.76 165.221 103.043 165.06C103.326 164.898 103.54 164.69 103.686 164.435C103.831 164.177 103.904 163.908 103.904 163.629V162.671C103.86 162.724 103.763 162.772 103.613 162.817C103.468 162.857 103.298 162.894 103.104 162.926C102.914 162.958 102.728 162.986 102.546 163.011C102.364 163.031 102.219 163.047 102.11 163.059C101.839 163.096 101.586 163.154 101.352 163.235C101.117 163.312 100.928 163.427 100.782 163.581C100.641 163.734 100.57 163.944 100.57 164.211C100.57 164.571 100.703 164.843 100.97 165.029C101.241 165.211 101.584 165.302 102.001 165.302ZM100.23 158.452L102.025 156.852H102.995L104.801 158.452H103.528L102.522 157.518L101.516 158.452H100.23ZM104.316 157.373L105.189 155.785H106.474L105.238 157.373H104.316ZM110.548 163.314V159.301H111.579V166.078H110.548V164.926H110.475C110.314 165.27 110.065 165.563 109.73 165.805C109.398 166.048 108.976 166.167 108.463 166.163C108.038 166.163 107.663 166.072 107.335 165.89C107.008 165.704 106.749 165.421 106.559 165.042C106.373 164.662 106.28 164.183 106.28 163.605V159.301H107.311V163.544C107.311 164.033 107.45 164.425 107.729 164.72C108.012 165.015 108.37 165.161 108.802 165.157C109.061 165.157 109.324 165.092 109.59 164.963C109.861 164.829 110.087 164.627 110.269 164.356C110.455 164.082 110.548 163.734 110.548 163.314ZM116.853 162.004V166.078H115.822V157.046H116.853V160.368H116.95C117.107 160.016 117.344 159.737 117.659 159.531C117.978 159.321 118.405 159.216 118.938 159.216C119.399 159.216 119.803 159.309 120.15 159.495C120.498 159.677 120.769 159.957 120.963 160.337C121.157 160.713 121.254 161.192 121.254 161.774V166.078H120.211V161.847C120.211 161.305 120.072 160.887 119.793 160.592C119.514 160.297 119.128 160.149 118.635 160.149C118.291 160.149 117.986 160.222 117.719 160.368C117.453 160.513 117.241 160.723 117.083 160.998C116.929 161.273 116.853 161.608 116.853 162.004ZM122.587 166.078V159.301H123.618V166.078H122.587ZM122.757 158.452L121.593 156.791H122.769L123.618 158.452H122.757ZM125.982 162.004V166.078H124.952V159.301H125.946V160.368H126.043C126.2 160.02 126.441 159.741 126.764 159.531C127.087 159.321 127.506 159.216 128.019 159.216C128.476 159.216 128.876 159.309 129.219 159.495C129.563 159.681 129.83 159.964 130.019 160.343C130.213 160.719 130.31 161.196 130.31 161.774V166.078H129.28V161.847C129.28 161.317 129.14 160.903 128.862 160.604C128.583 160.301 128.203 160.149 127.722 160.149C127.391 160.149 127.093 160.222 126.831 160.368C126.568 160.513 126.36 160.723 126.206 160.998C126.057 161.273 125.982 161.608 125.982 162.004ZM132.675 162.004V166.078H131.644V157.046H132.675V160.368H132.772C132.929 160.016 133.166 159.737 133.481 159.531C133.8 159.321 134.227 159.216 134.76 159.216C135.221 159.216 135.625 159.309 135.972 159.495C136.32 159.677 136.591 159.957 136.785 160.337C136.979 160.713 137.076 161.192 137.076 161.774V166.078H136.033V161.847C136.033 161.305 135.894 160.887 135.615 160.592C135.336 160.297 134.95 160.149 134.457 160.149C134.113 160.149 133.808 160.222 133.542 160.368C133.275 160.513 133.063 160.723 132.905 160.998C132.751 161.273 132.675 161.608 132.675 162.004Z" fill="black" fill-opacity="0.88"/>
<path d="M184 191.734L196.415 198.829V243.169L184 250.263V191.734Z" fill="white"/>
<g clip-path="url(#clip2_2_57008)">
<path d="M192.665 220.721L187.668 216.818C187.655 216.807 187.639 216.801 187.623 216.799C187.606 216.798 187.59 216.8 187.575 216.808C187.56 216.815 187.547 216.826 187.538 216.841C187.53 216.855 187.525 216.871 187.525 216.888V217.744C187.525 217.799 187.551 217.851 187.593 217.884L191.583 221L187.593 224.116C187.549 224.149 187.525 224.201 187.525 224.256V225.113C187.525 225.187 187.61 225.228 187.668 225.182L192.665 221.279C192.708 221.246 192.742 221.204 192.766 221.156C192.789 221.107 192.801 221.054 192.801 221C192.801 220.946 192.789 220.893 192.766 220.845C192.742 220.796 192.708 220.754 192.665 220.721Z" fill="black" fill-opacity="0.45"/>
</g>
</g>
<defs>
<filter id="filter0_d_2_57008" x="-8" y="0" width="212.415" height="445" filterUnits="userSpaceOnUse" color-interpolation-filters="sRGB">
<feFlood flood-opacity="0" result="BackgroundImageFix"/>
<feColorMatrix in="SourceAlpha" type="matrix" values="0 0 0 0 0 0 0 0 0 0 0 0 0 0 0 0 0 0 127 0" result="hardAlpha"/>
<feOffset dy="2"/>
<feGaussianBlur stdDeviation="4"/>
<feColorMatrix type="matrix" values="0 0 0 0 0 0 0 0 0 0 0 0 0 0 0 0 0 0 0.15 0"/>
<feBlend mode="normal" in2="BackgroundImageFix" result="effect1_dropShadow_2_57008"/>
<feBlend mode="normal" in="SourceGraphic" in2="effect1_dropShadow_2_57008" result="shape"/>
</filter>
<linearGradient id="paint0_linear_2_57008" x1="21.7676" y1="27.0412" x2="21.7676" y2="36.7421" gradientUnits="userSpaceOnUse">
<stop stop-color="white"/>
<stop offset="1" stop-color="#A194FF"/>
</linearGradient>
<linearGradient id="paint1_linear_2_57008" x1="12.307" y1="27.0412" x2="12.307" y2="36.7421" gradientUnits="userSpaceOnUse">
<stop stop-color="white"/>
<stop offset="1" stop-color="#A194FF"/>
</linearGradient>
<clipPath id="clip0_2_57008">
<rect width="14.1887" height="14.1887" fill="white" transform="translate(28.3774 114.189)"/>
</clipPath>
<clipPath id="clip1_2_57008">
<rect width="14.1887" height="14.1887" fill="white" transform="translate(28.3774 154.982)"/>
</clipPath>
<clipPath id="clip2_2_57008">
<rect width="9.93211" height="9.93211" fill="white" transform="translate(184.887 216.033)"/>
</clipPath>
</defs>
</svg>
