<svg width="32" height="32" viewBox="0 0 32 32" fill="none" xmlns="http://www.w3.org/2000/svg">
<path d="M0 16C0 7.16344 7.16344 0 16 0C24.8366 0 32 7.16344 32 16C32 24.8366 24.8366 32 16 32C7.16344 32 0 24.8366 0 16Z" fill="white" fill-opacity="0.1"/>
<path d="M22.6354 18.1416L19.323 16.6573L19.3138 16.6531C19.1419 16.5795 18.9543 16.55 18.768 16.5672C18.5818 16.5844 18.4028 16.6477 18.2472 16.7515C18.2289 16.7636 18.2113 16.7767 18.1945 16.7909L16.4831 18.2499C15.3988 17.7232 14.2795 16.6123 13.7528 15.5421L15.2139 13.8047C15.228 13.7871 15.2413 13.7695 15.254 13.7506C15.3555 13.5954 15.4172 13.4175 15.4333 13.2328C15.4495 13.048 15.4198 12.8621 15.3468 12.6917V12.6832L13.8583 9.36517C13.7618 9.14247 13.5958 8.95695 13.3852 8.83631C13.1746 8.71567 12.9306 8.66638 12.6897 8.6958C11.7369 8.82117 10.8624 9.28907 10.2294 10.0121C9.59643 10.7352 9.24828 11.6639 9.25001 12.6249C9.25001 18.2077 13.7922 22.7499 19.375 22.7499C20.336 22.7516 21.2647 22.4034 21.9878 21.7704C22.7108 21.1375 23.1787 20.2629 23.3041 19.3102C23.3335 19.0693 23.2844 18.8254 23.1638 18.6148C23.0433 18.4042 22.858 18.2382 22.6354 18.1416ZM19.375 21.6249C16.9889 21.6223 14.7012 20.6732 13.0139 18.9859C11.3267 17.2987 10.3776 15.011 10.375 12.6249C10.3724 11.9382 10.6197 11.2742 11.0709 10.7566C11.5221 10.239 12.1463 9.90339 12.8268 9.81236C12.8265 9.81516 12.8265 9.81799 12.8268 9.8208L14.3034 13.1255L12.85 14.865C12.8353 14.882 12.8219 14.9001 12.8099 14.9192C12.7041 15.0815 12.642 15.2685 12.6297 15.4619C12.6174 15.6553 12.6553 15.8486 12.7396 16.0231C13.3766 17.326 14.6894 18.6288 16.0063 19.2652C16.1821 19.3487 16.3765 19.3853 16.5706 19.3712C16.7647 19.3572 16.9519 19.293 17.1138 19.185C17.1318 19.1729 17.1492 19.1597 17.1658 19.1456L18.8751 17.6874L22.1798 19.1674C22.1798 19.1674 22.1854 19.1674 22.1875 19.1674C22.0976 19.8489 21.7624 20.4744 21.2448 20.9267C20.7271 21.379 20.0624 21.6272 19.375 21.6249Z" fill="white"/>
</svg>
