<svg width="32" height="32" viewBox="0 0 32 32" fill="none" xmlns="http://www.w3.org/2000/svg">
<path d="M0 16C0 7.16344 7.16344 0 16 0C24.8366 0 32 7.16344 32 16C32 24.8366 24.8366 32 16 32C7.16344 32 0 24.8366 0 16Z" fill="white" fill-opacity="0.1"/>
<path d="M22.75 10.375H9.25C9.10082 10.375 8.95774 10.4343 8.85225 10.5398C8.74676 10.6452 8.6875 10.7883 8.6875 10.9375V20.5C8.6875 20.7984 8.80603 21.0845 9.017 21.2955C9.22798 21.5065 9.51413 21.625 9.8125 21.625H22.1875C22.4859 21.625 22.772 21.5065 22.983 21.2955C23.194 21.0845 23.3125 20.7984 23.3125 20.5V10.9375C23.3125 10.7883 23.2532 10.6452 23.1477 10.5398C23.0423 10.4343 22.8992 10.375 22.75 10.375ZM21.3037 11.5L16 16.3621L10.6963 11.5H21.3037ZM22.1875 20.5H9.8125V12.2165L15.6196 17.5398C15.7234 17.6351 15.8591 17.688 16 17.688C16.1409 17.688 16.2766 17.6351 16.3804 17.5398L22.1875 12.2165V20.5Z" fill="white"/>
</svg>
