<svg width="32" height="32" viewBox="0 0 32 32" fill="none" xmlns="http://www.w3.org/2000/svg">
<path d="M32.0001 16.0006C32.0001 24.0816 26.0117 30.7623 18.2323 31.8464C17.5049 31.9473 16.7607 32 16.0053 32C15.1334 32 14.2771 31.9305 13.4432 31.796C5.82635 30.5695 0.00947571 23.9638 0.00947571 16.0006C0.00947571 7.16393 7.1713 0 16.0042 0C24.8371 0 32.0001 7.16393 32.0001 16.0006Z" fill="#6537FD"/>
<path d="M18.2323 12.8462V16.3318H22.5429L21.8603 21.027H18.2323V31.8446C17.5049 31.9455 16.7607 31.9982 16.0053 31.9982C15.1333 31.9982 14.2771 31.9287 13.4432 31.7942V21.027H9.46777V16.3318H13.4432V12.067C13.4432 9.42121 15.5873 7.27539 18.2334 7.27539V7.27763C18.2413 7.27763 18.248 7.27539 18.2559 7.27539H22.544V11.3361H19.742C18.9093 11.3361 18.2334 12.0121 18.2334 12.8451L18.2323 12.8462Z" fill="white"/>
</svg>
