<svg width="33" height="32" viewBox="0 0 33 32" fill="none" xmlns="http://www.w3.org/2000/svg">
<path d="M16.06 0H15.9872C7.17336 0 0.0283203 7.14713 0.0283203 15.9636V16.0364C0.0283203 24.8529 7.17336 32 15.9872 32H16.06C24.8739 32 32.0189 24.8529 32.0189 16.0364V15.9636C32.0189 7.14713 24.8739 0 16.06 0Z" fill="#6537FD"/>
<path d="M7.65751 10.6366C7.23609 10.2454 7.02652 9.76103 7.02652 9.18478C7.02652 8.60852 7.23721 8.1029 7.65751 7.71051C8.07892 7.31924 8.62139 7.12305 9.28601 7.12305C9.95064 7.12305 10.4718 7.31924 10.8921 7.71051C11.3135 8.10178 11.5231 8.59395 11.5231 9.18478C11.5231 9.7756 11.3124 10.2454 10.8921 10.6366C10.4707 11.0279 9.93607 11.2241 9.28601 11.2241C8.63596 11.2241 8.07892 11.0279 7.65751 10.6366ZM11.1689 12.8811V24.877H7.37956V12.8811H11.1689Z" fill="white"/>
<path d="M23.7834 14.066C24.6094 14.9629 25.0218 16.1939 25.0218 17.7612V24.6651H21.423V18.2478C21.423 17.4574 21.2179 16.843 20.8088 16.4058C20.3997 15.9686 19.8483 15.7488 19.1579 15.7488C18.4675 15.7488 17.916 15.9675 17.507 16.4058C17.0979 16.843 16.8928 17.4574 16.8928 18.2478V24.6651H13.2727V12.8474H16.8928V14.4147C17.2593 13.8923 17.7536 13.4797 18.3745 13.1759C18.9954 12.8721 19.6936 12.7207 20.4703 12.7207C21.8534 12.7207 22.9585 13.1691 23.7834 14.066Z" fill="white"/>
</svg>
