<svg width="49" height="49" viewBox="0 0 49 49" fill="none" xmlns="http://www.w3.org/2000/svg">
<g clip-path="url(#clip0_2_57120)">
<path d="M19.8872 6.89063H1.43555C0.642632 6.89063 0 7.53326 0 8.32617V26.7778C0 27.5707 0.642632 28.2134 1.43555 28.2134H9.22563V40.6166C9.22563 41.4092 9.86826 42.0522 10.6612 42.0522H15.2744C15.892 42.0522 16.4408 41.6567 16.6359 41.0705L21.2487 27.232C21.2977 27.0855 21.3227 26.9322 21.3227 26.7778V8.32617C21.3227 7.53326 20.6801 6.89063 19.8872 6.89063ZM18.4516 26.5449L14.2396 39.1807H12.0967V26.7778C12.0967 25.9849 11.4541 25.3423 10.6612 25.3423H2.87109V9.76172H18.4516V26.5449Z" fill="#E0D7FF"/>
<path d="M47.5649 6.89063H29.1133C28.3204 6.89063 27.6777 7.53326 27.6777 8.32617V26.7778C27.6777 27.5707 28.3204 28.2134 29.1133 28.2134H36.9037V40.6166C36.9037 41.4092 37.5464 42.0522 38.3393 42.0522H42.9521C43.5701 42.0522 44.1185 41.6567 44.314 41.0705L48.9268 27.232C48.9754 27.0855 49.0005 26.9322 49.0005 26.7778V8.32617C49.0005 7.53326 48.3578 6.89063 47.5649 6.89063ZM46.1294 26.5449L41.9173 39.1807H39.7748V26.7778C39.7748 25.9849 39.1318 25.3423 38.3393 25.3423H30.5488V9.76172H46.1294V26.5449Z" fill="#E0D7FF"/>
</g>
<defs>
<clipPath id="clip0_2_57120">
<rect width="49" height="49" fill="white"/>
</clipPath>
</defs>
</svg>
