<svg width="32" height="32" viewBox="0 0 32 32" fill="none" xmlns="http://www.w3.org/2000/svg">
<path d="M32.0095 16C32.0095 7.16344 24.8482 0 16.0142 0C7.18026 0 0.0189209 7.16344 0.0189209 16C0.0189209 24.8366 7.18026 32 16.0142 32C24.8482 32 32.0095 24.8366 32.0095 16Z" fill="#6537FD"/>
<path d="M22.8042 23.0856C22.3276 23.1373 21.8398 23.1463 21.3722 23.1452C17.7249 23.1418 14.0776 23.1384 10.4314 23.1362C9.28386 23.1362 8.034 23.0991 7.14718 22.3694C6.14797 21.5453 5.94004 20.1163 5.85911 18.8233C5.74672 17.0514 5.73772 15.2739 5.82989 13.5009C5.88047 12.5272 5.96926 11.53 6.3885 10.6485C6.68973 10.0155 7.19214 9.44662 7.83506 9.14755C8.5825 8.80014 9.36479 8.86198 10.1696 8.86085C12.096 8.8586 14.0225 8.85748 15.949 8.85523C17.952 8.85298 19.956 8.85186 21.9589 8.84961C22.9053 8.84961 23.9214 8.86872 24.6936 9.41626C25.6905 10.1223 25.9614 11.4659 26.0862 12.6812C26.3166 14.9197 26.32 17.1818 26.0952 19.4203C26.0019 20.3434 25.8468 21.3193 25.2387 22.0197C24.6362 22.7146 23.7427 22.9821 22.8053 23.0845L22.8042 23.0856Z" fill="white"/>
<path d="M19.276 15.9984L13.8405 12.8594V19.1375L19.276 15.9984Z" fill="#6537FD"/>
</svg>
